<svg xmlns="http://www.w3.org/2000/svg" version="1.1" xmlns:xlink="http://www.w3.org/1999/xlink" width="512" height="512" x="0" y="0" viewBox="0 0 682.667 682.667" style="enable-background:new 0 0 512 512" xml:space="preserve"><g><defs><clipPath id="a" clipPathUnits="userSpaceOnUse"><path d="M0 512h512V0H0Z" fill="#c4636d" opacity="1" data-original="#000000"></path></clipPath></defs><g clip-path="url(#a)" transform="matrix(1.33333 0 0 -1.33333 0 682.667)"><path d="M0 0c-3.81.19-7.66.29-11.54.29-91.5 0-165.68-53.11-165.68-118.62 0-9.64 1.61-19.01 4.64-27.98-21.79 1.01-42.44 5.02-61.14 11.45-39.83-33.27-94.13-38.07-94.13-38.07s20.7 26.26 32.88 74.15c-20.65 19.76-32.88 44.28-32.88 70.83 0 65.51 74.43 118.61 166.24 118.61C-83.28 90.66-17.61 52.02 0 0Z" style="stroke-width:30;stroke-linecap:butt;stroke-linejoin:round;stroke-miterlimit:10;stroke-dasharray:none;stroke-opacity:1" transform="translate(342.85 342.32)" fill="none" stroke="#c4636d" stroke-width="30" stroke-linecap="butt" stroke-linejoin="round" stroke-miterlimit="10" stroke-dasharray="none" stroke-opacity="" data-original="#000000" opacity="1"></path><path d="M0 0c7.275-28.283 18.461-57.513 36.628-80.759l10.606 25.607c-.241.022-.937-.028-1.088.113-.159.15-1.087.136-1.315.158-1.458.138 4.758-.701 1.68-.224-3.914.606-7.812 1.268-11.69 2.08a213.134 213.134 0 0 0-26.489 7.368 200.025 200.025 0 0 0-7.659 2.86c-.304.121-3.688 1.522-2.127.858 1.577-.671-1.172.524-1.502.671a177.523 177.523 0 0 0-7.314 3.465 163.525 163.525 0 0 0-11.325 6.262 145.558 145.558 0 0 0-9.816 6.501c-.859.621-1.725 1.246-2.563 1.898 1.436-1.117-.64.545-.75.636-4.225 3.476-8.055 5.934-13.846 5.156-4.513-.607-8.955-2.584-13.353-3.821a212.429 212.429 0 0 0-14.362-3.496c-9.747-2.019-17.191-3.01-27.259-3.652a234.872 234.872 0 0 0-28.067-.105 227.98 227.98 0 0 0-15.252 1.37c-2.642.323 1.884-.285-.736.099-2.337.342-4.669.715-6.995 1.129a212.928 212.928 0 0 0-23.888 5.674 199.694 199.694 0 0 0-16.096 5.585c-.324.129-3.122 1.26-1.573.618 1.513-.626-1.89.824-2.187.957-6.844 3.051-13.51 6.514-19.907 10.417a160.351 160.351 0 0 0-9.071 5.958 178.01 178.01 0 0 0-3.769 2.754c-1.859 1.389 1.692-1.374-.095.083-.847.69-1.701 1.37-2.539 2.071-5.219 4.361-10.129 9.1-14.61 14.219-1.09 1.244-2.13 2.527-3.189 3.798-1.791 2.149-.246.314.081-.127-.484.654-.972 1.305-1.447 1.966a106.981 106.981 0 0 0-5.282 8.078 99.886 99.886 0 0 0-4.439 8.394c-.333.712-.649 1.43-.974 2.145.212-.465 1.116-2.922.157-.332-.646 1.742-1.308 3.469-1.885 5.237-2.944 9.013-3.989 15.762-3.809 24.89.057 2.889.345 5.738.603 8.613-.352-3.919.137.601.336 1.66a89.637 89.637 0 0 0 3.566 13.205c.509 1.441 1.078 2.857 1.634 4.28-1.391-3.561.715 1.434 1.087 2.193 2.854 5.828 6.322 11.249 10.119 16.5 1.534 2.122-1.389-1.612.992 1.225 1.043 1.243 2.083 2.484 3.162 3.696a127.674 127.674 0 0 0 7.314 7.548 137.977 137.977 0 0 0 7.1 6.295c.659.545 1.33 1.076 1.991 1.618 1.763 1.442-1.808-1.341.026.032a172.872 172.872 0 0 0 4.756 3.453c5.888 4.104 12.06 7.796 18.429 11.103a179.475 179.475 0 0 0 9.396 4.532c.338.151 3.017 1.327 1.442.651-1.583-.68 1.142.467 1.484.605 1.993.804 4 1.576 6.018 2.313a204.503 204.503 0 0 0 22.534 6.775c3.931.942 7.888 1.772 11.865 2.495a220.52 220.52 0 0 0 8.363 1.349c1.528.215-1.19-.113 1.414.167 8.45.907 16.905 1.51 25.407 1.565 18.844.122 32.75-1.379 50.253-5.572A205.145 205.145 0 0 0-47.038 166a196.89 196.89 0 0 0 4.745-1.808c.892-.354 1.783-.712 2.669-1.082-2.273.948-.027.003.363-.173 3.638-1.642 7.243-3.335 10.782-5.183 6.426-3.356 12.647-7.109 18.577-11.281a164.228 164.228 0 0 0 4.266-3.113c1.842-1.385-1.711 1.396.058-.061.501-.412 1.012-.813 1.513-1.225 2.8-2.302 5.512-4.71 8.12-7.226a127.916 127.916 0 0 0 6.918-7.21 117.661 117.661 0 0 0 2.797-3.272c.518-.628 1.019-1.268 1.533-1.9-2.21 2.721.297-.447.575-.832 3.698-5.124 6.963-10.567 9.668-16.28.325-.686 1.798-4.136 1.128-2.467-.712 1.773.927-2.545 1.113-3.076a89.44 89.44 0 0 0 2.739-9.414c.348-1.498.656-3.006.924-4.521.099-.561.145-1.158.282-1.71.525-2.107-.204 2.72-.068.547.207-3.308.571-6.572.57-9.895a87.46 87.46 0 0 0-.223-6.208c-.073-1.027-.174-2.05-.277-3.074.033.324.299 1.954.034.177-.638-4.29-1.639-8.535-2.921-12.678-.605-1.958-1.303-3.879-2.012-5.801-.098-.266-1.095-2.626-.255-.691a79.507 79.507 0 0 0-1.299-2.812 101.291 101.291 0 0 0-6.126-10.923c-4.42-6.859-8.746-11.84-15.297-18.214-5.807-5.65-5.673-15.54 0-21.213 5.811-5.811 15.389-5.667 21.213 0 23.362 22.73 39.218 54.064 36.965 87.283-1.798 26.532-13.608 50.608-31.511 70.025-40.925 44.385-107.25 61.376-165.821 57.142-56.171-4.06-116.928-27.673-147.711-77.515-14.834-24.02-19.876-53.187-12.956-80.665 6.525-25.911 23.371-48.603 44.084-65.054 51.236-40.693 122.316-51.411 185.289-37.828 8.13 1.753 16.131 4.003 24.002 6.685l-14.594 3.857c29.02-24.02 66.83-39.058 104.416-42.463 5.782-.524 11.684 4.188 13.708 9.221 2.447 6.082.795 11.4-3.101 16.385 5.094-6.518-.047.27-1.149 1.938-3.017 4.568-5.769 9.312-8.339 14.144a217.557 217.557 0 0 0-5.028 10.083c-.85 1.819-1.676 3.65-2.479 5.491-.366.841-1.219 2.926-.429.994-.468 1.145-.931 2.29-1.385 3.44C34.99-13.204 31.673-2.695 28.928 7.975c-2.018 7.847-10.736 12.597-18.451 10.477C2.533 16.269-2.025 7.872 0 0" style="fill-opacity:1;fill-rule:nonzero;stroke:none" transform="translate(449.766 149.172)" fill="#c4636d" data-original="#000000" opacity="1"></path><path d="M0 0c7.846 0 15.363 6.899 15 15-.364 8.127-6.591 15-15 15-7.846 0-15.363-6.899-15-15 .364-8.127 6.591-15 15-15" style="fill-opacity:1;fill-rule:nonzero;stroke:none" transform="translate(271.063 207.11)" fill="#c4636d" data-original="#000000" opacity="1"></path><path d="M0 0c7.846 0 15.363 6.899 15 15-.364 8.127-6.591 15-15 15-7.846 0-15.363-6.899-15-15 .364-8.127 6.591-15 15-15" style="fill-opacity:1;fill-rule:nonzero;stroke:none" transform="translate(331.313 207.11)" fill="#c4636d" data-original="#000000" opacity="1"></path><path d="M0 0c7.846 0 15.363 6.899 15 15-.364 8.127-6.591 15-15 15-7.846 0-15.363-6.899-15-15 .364-8.127 6.591-15 15-15" style="fill-opacity:1;fill-rule:nonzero;stroke:none" transform="translate(391.563 207.11)" fill="#c4636d" data-original="#000000" opacity="1"></path></g></g></svg>