<svg xmlns="http://www.w3.org/2000/svg" xmlns:xlink="http://www.w3.org/1999/xlink" width="2000" zoomAndPan="magnify" viewBox="0 0 1500 1499.999933" height="2000" preserveAspectRatio="xMidYMid meet" version="1.0"><defs><g/><clipPath id="7bb02f29c6"><path d="M 448.070312 636.246094 L 611.410156 636.246094 L 611.410156 812.984375 L 448.070312 812.984375 Z M 448.070312 636.246094 " clip-rule="nonzero"/></clipPath><clipPath id="44d0e26075"><path d="M 529.738281 636.246094 C 484.632812 636.246094 448.070312 675.679688 448.070312 724.328125 C 448.070312 772.972656 484.632812 812.40625 529.738281 812.40625 C 574.84375 812.40625 611.410156 772.972656 611.410156 724.328125 C 611.410156 675.679688 574.84375 636.246094 529.738281 636.246094 Z M 529.738281 636.246094 " clip-rule="nonzero"/></clipPath><clipPath id="92124401b2"><path d="M 0.0703125 0.246094 L 163.410156 0.246094 L 163.410156 176.640625 L 0.0703125 176.640625 Z M 0.0703125 0.246094 " clip-rule="nonzero"/></clipPath><clipPath id="ecbd2ea570"><path d="M 81.738281 0.246094 C 36.632812 0.246094 0.0703125 39.679688 0.0703125 88.328125 C 0.0703125 136.972656 36.632812 176.40625 81.738281 176.40625 C 126.84375 176.40625 163.410156 136.972656 163.410156 88.328125 C 163.410156 39.679688 126.84375 0.246094 81.738281 0.246094 Z M 81.738281 0.246094 " clip-rule="nonzero"/></clipPath><clipPath id="659035b3af"><rect x="0" width="164" y="0" height="177"/></clipPath><clipPath id="32d70da7ec"><path d="M 509.050781 675.058594 L 539.191406 675.058594 L 539.191406 705.199219 L 509.050781 705.199219 Z M 509.050781 675.058594 " clip-rule="nonzero"/></clipPath><clipPath id="dbc0ff7868"><path d="M 512.050781 675.058594 L 536.191406 675.058594 C 536.988281 675.058594 537.75 675.375 538.3125 675.9375 C 538.875 676.5 539.191406 677.261719 539.191406 678.058594 L 539.191406 702.199219 C 539.191406 702.996094 538.875 703.757812 538.3125 704.320312 C 537.75 704.882812 536.988281 705.199219 536.191406 705.199219 L 512.050781 705.199219 C 511.257812 705.199219 510.492188 704.882812 509.929688 704.320312 C 509.367188 703.757812 509.050781 702.996094 509.050781 702.199219 L 509.050781 678.058594 C 509.050781 677.261719 509.367188 676.5 509.929688 675.9375 C 510.492188 675.375 511.257812 675.058594 512.050781 675.058594 Z M 512.050781 675.058594 " clip-rule="nonzero"/></clipPath><clipPath id="fdefc7b80a"><path d="M 0.0507812 0.0585938 L 30.191406 0.0585938 L 30.191406 30.199219 L 0.0507812 30.199219 Z M 0.0507812 0.0585938 " clip-rule="nonzero"/></clipPath><clipPath id="e47158f87c"><path d="M 3.050781 0.0585938 L 27.191406 0.0585938 C 27.988281 0.0585938 28.75 0.375 29.3125 0.9375 C 29.875 1.5 30.191406 2.261719 30.191406 3.058594 L 30.191406 27.199219 C 30.191406 27.996094 29.875 28.757812 29.3125 29.320312 C 28.75 29.882812 27.988281 30.199219 27.191406 30.199219 L 3.050781 30.199219 C 2.257812 30.199219 1.492188 29.882812 0.929688 29.320312 C 0.367188 28.757812 0.0507812 27.996094 0.0507812 27.199219 L 0.0507812 3.058594 C 0.0507812 2.261719 0.367188 1.5 0.929688 0.9375 C 1.492188 0.375 2.257812 0.0585938 3.050781 0.0585938 Z M 3.050781 0.0585938 " clip-rule="nonzero"/></clipPath><clipPath id="286f84322d"><rect x="0" width="31" y="0" height="31"/></clipPath><clipPath id="bc220df32f"><path d="M 488.300781 735.414062 L 518.441406 735.414062 L 518.441406 765.554688 L 488.300781 765.554688 Z M 488.300781 735.414062 " clip-rule="nonzero"/></clipPath><clipPath id="59d21296e6"><path d="M 491.300781 735.414062 L 515.441406 735.414062 C 516.238281 735.414062 517 735.730469 517.5625 736.292969 C 518.125 736.855469 518.441406 737.617188 518.441406 738.414062 L 518.441406 762.554688 C 518.441406 763.351562 518.125 764.113281 517.5625 764.675781 C 517 765.238281 516.238281 765.554688 515.441406 765.554688 L 491.300781 765.554688 C 490.503906 765.554688 489.742188 765.238281 489.179688 764.675781 C 488.617188 764.113281 488.300781 763.351562 488.300781 762.554688 L 488.300781 738.414062 C 488.300781 737.617188 488.617188 736.855469 489.179688 736.292969 C 489.742188 735.730469 490.503906 735.414062 491.300781 735.414062 Z M 491.300781 735.414062 " clip-rule="nonzero"/></clipPath><clipPath id="ad27344f7f"><path d="M 0.300781 0.414062 L 30.441406 0.414062 L 30.441406 30.554688 L 0.300781 30.554688 Z M 0.300781 0.414062 " clip-rule="nonzero"/></clipPath><clipPath id="ff0ea9f4f8"><path d="M 3.300781 0.414062 L 27.441406 0.414062 C 28.238281 0.414062 29 0.730469 29.5625 1.292969 C 30.125 1.855469 30.441406 2.617188 30.441406 3.414062 L 30.441406 27.554688 C 30.441406 28.351562 30.125 29.113281 29.5625 29.675781 C 29 30.238281 28.238281 30.554688 27.441406 30.554688 L 3.300781 30.554688 C 2.503906 30.554688 1.742188 30.238281 1.179688 29.675781 C 0.617188 29.113281 0.300781 28.351562 0.300781 27.554688 L 0.300781 3.414062 C 0.300781 2.617188 0.617188 1.855469 1.179688 1.292969 C 1.742188 0.730469 2.503906 0.414062 3.300781 0.414062 Z M 3.300781 0.414062 " clip-rule="nonzero"/></clipPath><clipPath id="7bed3441c4"><rect x="0" width="31" y="0" height="31"/></clipPath><clipPath id="49f8b5233e"><path d="M 548.929688 709.257812 L 579.070312 709.257812 L 579.070312 739.398438 L 548.929688 739.398438 Z M 548.929688 709.257812 " clip-rule="nonzero"/></clipPath><clipPath id="17d3e9a6b2"><path d="M 551.929688 709.257812 L 576.070312 709.257812 C 576.867188 709.257812 577.628906 709.574219 578.191406 710.136719 C 578.753906 710.699219 579.070312 711.460938 579.070312 712.257812 L 579.070312 736.398438 C 579.070312 737.191406 578.753906 737.957031 578.191406 738.519531 C 577.628906 739.082031 576.867188 739.398438 576.070312 739.398438 L 551.929688 739.398438 C 551.136719 739.398438 550.371094 739.082031 549.808594 738.519531 C 549.246094 737.957031 548.929688 737.191406 548.929688 736.398438 L 548.929688 712.257812 C 548.929688 711.460938 549.246094 710.699219 549.808594 710.136719 C 550.371094 709.574219 551.136719 709.257812 551.929688 709.257812 Z M 551.929688 709.257812 " clip-rule="nonzero"/></clipPath><clipPath id="c13f798929"><path d="M 0.929688 0.257812 L 31.070312 0.257812 L 31.070312 30.398438 L 0.929688 30.398438 Z M 0.929688 0.257812 " clip-rule="nonzero"/></clipPath><clipPath id="70eb10201e"><path d="M 3.929688 0.257812 L 28.070312 0.257812 C 28.867188 0.257812 29.628906 0.574219 30.191406 1.136719 C 30.753906 1.699219 31.070312 2.460938 31.070312 3.257812 L 31.070312 27.398438 C 31.070312 28.191406 30.753906 28.957031 30.191406 29.519531 C 29.628906 30.082031 28.867188 30.398438 28.070312 30.398438 L 3.929688 30.398438 C 3.136719 30.398438 2.371094 30.082031 1.808594 29.519531 C 1.246094 28.957031 0.929688 28.191406 0.929688 27.398438 L 0.929688 3.257812 C 0.929688 2.460938 1.246094 1.699219 1.808594 1.136719 C 2.371094 0.574219 3.136719 0.257812 3.929688 0.257812 Z M 3.929688 0.257812 " clip-rule="nonzero"/></clipPath><clipPath id="b118baef05"><rect x="0" width="32" y="0" height="31"/></clipPath><clipPath id="8f73cea7af"><path d="M 586.660156 636.246094 L 750 636.246094 L 750 812.984375 L 586.660156 812.984375 Z M 586.660156 636.246094 " clip-rule="nonzero"/></clipPath><clipPath id="64b14cf7df"><path d="M 668.328125 636.246094 C 623.226562 636.246094 586.660156 675.679688 586.660156 724.328125 C 586.660156 772.972656 623.226562 812.40625 668.328125 812.40625 C 713.433594 812.40625 750 772.972656 750 724.328125 C 750 675.679688 713.433594 636.246094 668.328125 636.246094 Z M 668.328125 636.246094 " clip-rule="nonzero"/></clipPath><clipPath id="aaefa3c24d"><path d="M 0.660156 0.246094 L 164 0.246094 L 164 176.640625 L 0.660156 176.640625 Z M 0.660156 0.246094 " clip-rule="nonzero"/></clipPath><clipPath id="537e9dd65f"><path d="M 82.328125 0.246094 C 37.226562 0.246094 0.660156 39.679688 0.660156 88.328125 C 0.660156 136.972656 37.226562 176.40625 82.328125 176.40625 C 127.433594 176.40625 164 136.972656 164 88.328125 C 164 39.679688 127.433594 0.246094 82.328125 0.246094 Z M 82.328125 0.246094 " clip-rule="nonzero"/></clipPath><clipPath id="e550f16908"><rect x="0" width="164" y="0" height="177"/></clipPath><clipPath id="c436c88138"><path d="M 667.121094 735.414062 L 697.261719 735.414062 L 697.261719 765.554688 L 667.121094 765.554688 Z M 667.121094 735.414062 " clip-rule="nonzero"/></clipPath><clipPath id="8ff64150ac"><path d="M 670.121094 735.414062 L 694.261719 735.414062 C 695.058594 735.414062 695.820312 735.730469 696.382812 736.292969 C 696.945312 736.855469 697.261719 737.617188 697.261719 738.414062 L 697.261719 762.554688 C 697.261719 763.351562 696.945312 764.113281 696.382812 764.675781 C 695.820312 765.238281 695.058594 765.554688 694.261719 765.554688 L 670.121094 765.554688 C 669.324219 765.554688 668.5625 765.238281 668 764.675781 C 667.4375 764.113281 667.121094 763.351562 667.121094 762.554688 L 667.121094 738.414062 C 667.121094 737.617188 667.4375 736.855469 668 736.292969 C 668.5625 735.730469 669.324219 735.414062 670.121094 735.414062 Z M 670.121094 735.414062 " clip-rule="nonzero"/></clipPath><clipPath id="10f9ae9030"><path d="M 0.121094 0.414062 L 30.261719 0.414062 L 30.261719 30.554688 L 0.121094 30.554688 Z M 0.121094 0.414062 " clip-rule="nonzero"/></clipPath><clipPath id="c85b1d5074"><path d="M 3.121094 0.414062 L 27.261719 0.414062 C 28.058594 0.414062 28.820312 0.730469 29.382812 1.292969 C 29.945312 1.855469 30.261719 2.617188 30.261719 3.414062 L 30.261719 27.554688 C 30.261719 28.351562 29.945312 29.113281 29.382812 29.675781 C 28.820312 30.238281 28.058594 30.554688 27.261719 30.554688 L 3.121094 30.554688 C 2.324219 30.554688 1.5625 30.238281 1 29.675781 C 0.4375 29.113281 0.121094 28.351562 0.121094 27.554688 L 0.121094 3.414062 C 0.121094 2.617188 0.4375 1.855469 1 1.292969 C 1.5625 0.730469 2.324219 0.414062 3.121094 0.414062 Z M 3.121094 0.414062 " clip-rule="nonzero"/></clipPath><clipPath id="a188ced425"><rect x="0" width="31" y="0" height="31"/></clipPath><clipPath id="113690e706"><path d="M 632.953125 690.128906 L 663.09375 690.128906 L 663.09375 720.269531 L 632.953125 720.269531 Z M 632.953125 690.128906 " clip-rule="nonzero"/></clipPath><clipPath id="50d376a9c6"><path d="M 635.953125 690.128906 L 660.09375 690.128906 C 660.886719 690.128906 661.652344 690.445312 662.214844 691.007812 C 662.777344 691.570312 663.09375 692.332031 663.09375 693.128906 L 663.09375 717.269531 C 663.09375 718.066406 662.777344 718.828125 662.214844 719.390625 C 661.652344 719.953125 660.886719 720.269531 660.09375 720.269531 L 635.953125 720.269531 C 635.15625 720.269531 634.394531 719.953125 633.832031 719.390625 C 633.269531 718.828125 632.953125 718.066406 632.953125 717.269531 L 632.953125 693.128906 C 632.953125 692.332031 633.269531 691.570312 633.832031 691.007812 C 634.394531 690.445312 635.15625 690.128906 635.953125 690.128906 Z M 635.953125 690.128906 " clip-rule="nonzero"/></clipPath><clipPath id="df63459d1e"><path d="M 0.953125 0.128906 L 31.09375 0.128906 L 31.09375 30.269531 L 0.953125 30.269531 Z M 0.953125 0.128906 " clip-rule="nonzero"/></clipPath><clipPath id="5b0cb7e6b0"><path d="M 3.953125 0.128906 L 28.09375 0.128906 C 28.886719 0.128906 29.652344 0.445312 30.214844 1.007812 C 30.777344 1.570312 31.09375 2.332031 31.09375 3.128906 L 31.09375 27.269531 C 31.09375 28.066406 30.777344 28.828125 30.214844 29.390625 C 29.652344 29.953125 28.886719 30.269531 28.09375 30.269531 L 3.953125 30.269531 C 3.15625 30.269531 2.394531 29.953125 1.832031 29.390625 C 1.269531 28.828125 0.953125 28.066406 0.953125 27.269531 L 0.953125 3.128906 C 0.953125 2.332031 1.269531 1.570312 1.832031 1.007812 C 2.394531 0.445312 3.15625 0.128906 3.953125 0.128906 Z M 3.953125 0.128906 " clip-rule="nonzero"/></clipPath><clipPath id="5ed7026776"><rect x="0" width="32" y="0" height="31"/></clipPath></defs><g clip-path="url(#7bb02f29c6)"><g clip-path="url(#44d0e26075)"><g transform="matrix(1, 0, 0, 1, 448, 636)"><g clip-path="url(#659035b3af)"><g clip-path="url(#92124401b2)"><g clip-path="url(#ecbd2ea570)"><path fill="#c4636d" d="M 0.0703125 0.246094 L 163.410156 0.246094 L 163.410156 176.347656 L 0.0703125 176.347656 Z M 0.0703125 0.246094 " fill-opacity="1" fill-rule="nonzero"/></g></g></g></g></g></g><g clip-path="url(#32d70da7ec)"><g clip-path="url(#dbc0ff7868)"><g transform="matrix(1, 0, 0, 1, 509, 675)"><g clip-path="url(#286f84322d)"><g clip-path="url(#fdefc7b80a)"><g clip-path="url(#e47158f87c)"><path fill="#1f1a16" d="M 0.0507812 0.0585938 L 30.191406 0.0585938 L 30.191406 30.199219 L 0.0507812 30.199219 Z M 0.0507812 0.0585938 " fill-opacity="1" fill-rule="nonzero"/></g></g></g></g></g></g><g clip-path="url(#bc220df32f)"><g clip-path="url(#59d21296e6)"><g transform="matrix(1, 0, 0, 1, 488, 735)"><g clip-path="url(#7bed3441c4)"><g clip-path="url(#ad27344f7f)"><g clip-path="url(#ff0ea9f4f8)"><path fill="#1f1a16" d="M 0.300781 0.414062 L 30.441406 0.414062 L 30.441406 30.554688 L 0.300781 30.554688 Z M 0.300781 0.414062 " fill-opacity="1" fill-rule="nonzero"/></g></g></g></g></g></g><g clip-path="url(#49f8b5233e)"><g clip-path="url(#17d3e9a6b2)"><g transform="matrix(1, 0, 0, 1, 548, 709)"><g clip-path="url(#b118baef05)"><g clip-path="url(#c13f798929)"><g clip-path="url(#70eb10201e)"><path fill="#1f1a16" d="M 0.929688 0.257812 L 31.070312 0.257812 L 31.070312 30.398438 L 0.929688 30.398438 Z M 0.929688 0.257812 " fill-opacity="1" fill-rule="nonzero"/></g></g></g></g></g></g><g clip-path="url(#8f73cea7af)"><g clip-path="url(#64b14cf7df)"><g transform="matrix(1, 0, 0, 1, 586, 636)"><g clip-path="url(#e550f16908)"><g clip-path="url(#aaefa3c24d)"><g clip-path="url(#537e9dd65f)"><path fill="#c4636d" d="M 0.660156 0.246094 L 164 0.246094 L 164 176.347656 L 0.660156 176.347656 Z M 0.660156 0.246094 " fill-opacity="1" fill-rule="nonzero"/></g></g></g></g></g></g><g clip-path="url(#c436c88138)"><g clip-path="url(#8ff64150ac)"><g transform="matrix(1, 0, 0, 1, 667, 735)"><g clip-path="url(#a188ced425)"><g clip-path="url(#10f9ae9030)"><g clip-path="url(#c85b1d5074)"><path fill="#1f1a16" d="M 0.121094 0.414062 L 30.261719 0.414062 L 30.261719 30.554688 L 0.121094 30.554688 Z M 0.121094 0.414062 " fill-opacity="1" fill-rule="nonzero"/></g></g></g></g></g></g><g clip-path="url(#113690e706)"><g clip-path="url(#50d376a9c6)"><g transform="matrix(1, 0, 0, 1, 632, 690)"><g clip-path="url(#5ed7026776)"><g clip-path="url(#df63459d1e)"><g clip-path="url(#5b0cb7e6b0)"><path fill="#1f1a16" d="M 0.953125 0.128906 L 31.09375 0.128906 L 31.09375 30.269531 L 0.953125 30.269531 Z M 0.953125 0.128906 " fill-opacity="1" fill-rule="nonzero"/></g></g></g></g></g></g><g fill="#c4636d" fill-opacity="1"><g transform="translate(1100.640869, 840.949372)"><g><path d="M 171.832031 -84.015625 L 171.832031 -140.277344 C 171.832031 -154.726562 166.890625 -169.171875 158.148438 -182.097656 C 144.082031 -203.003906 120.511719 -215.171875 95.039062 -215.171875 C 59.683594 -215.171875 27.75 -190.839844 20.148438 -157.765625 C 17.488281 -147.121094 17.105469 -142.941406 17.105469 -122.410156 L 17.105469 -79.832031 C 17.105469 -44.859375 30.414062 -20.910156 57.402344 -5.703125 C 68.808594 0.761719 80.972656 3.800781 93.898438 3.800781 C 117.46875 3.800781 135.335938 -4.183594 152.824219 -22.808594 L 115.949219 -53.984375 C 109.484375 -46.378906 103.402344 -42.957031 95.039062 -42.957031 C 85.15625 -42.957031 76.414062 -48.28125 71.851562 -56.644531 C 69.570312 -61.207031 68.808594 -65.007812 68.808594 -75.652344 L 68.808594 -84.015625 Z M 120.511719 -131.535156 L 68.808594 -131.535156 L 68.808594 -133.054688 C 68.808594 -143.699219 69.1875 -148.261719 71.089844 -152.824219 C 74.890625 -162.328125 84.015625 -168.792969 94.660156 -168.792969 C 105.304688 -168.792969 115.1875 -161.949219 118.609375 -152.0625 C 120.128906 -147.503906 120.511719 -144.082031 120.511719 -134.195312 Z M 120.511719 -131.535156 "/></g></g></g><g fill="#c4636d" fill-opacity="1"><g transform="translate(925.570266, 840.949372)"><g><path d="M 171.832031 -84.015625 L 171.832031 -140.277344 C 171.832031 -154.726562 166.890625 -169.171875 158.148438 -182.097656 C 144.082031 -203.003906 120.511719 -215.171875 95.039062 -215.171875 C 59.683594 -215.171875 27.75 -190.839844 20.148438 -157.765625 C 17.488281 -147.121094 17.105469 -142.941406 17.105469 -122.410156 L 17.105469 -79.832031 C 17.105469 -44.859375 30.414062 -20.910156 57.402344 -5.703125 C 68.808594 0.761719 80.972656 3.800781 93.898438 3.800781 C 117.46875 3.800781 135.335938 -4.183594 152.824219 -22.808594 L 115.949219 -53.984375 C 109.484375 -46.378906 103.402344 -42.957031 95.039062 -42.957031 C 85.15625 -42.957031 76.414062 -48.28125 71.851562 -56.644531 C 69.570312 -61.207031 68.808594 -65.007812 68.808594 -75.652344 L 68.808594 -84.015625 Z M 120.511719 -131.535156 L 68.808594 -131.535156 L 68.808594 -133.054688 C 68.808594 -143.699219 69.1875 -148.261719 71.089844 -152.824219 C 74.890625 -162.328125 84.015625 -168.792969 94.660156 -168.792969 C 105.304688 -168.792969 115.1875 -161.949219 118.609375 -152.0625 C 120.128906 -147.503906 120.511719 -144.082031 120.511719 -134.195312 Z M 120.511719 -131.535156 "/></g></g></g><g fill="#c4636d" fill-opacity="1"><g transform="translate(749.176143, 840.949372)"><g><path d="M 70.710938 -131.535156 L 70.710938 -211.75 L 19.386719 -211.75 L 19.386719 0 L 70.710938 0 L 70.710938 -84.015625 L 92.378906 -84.015625 C 102.644531 -84.015625 111.007812 -80.972656 116.328125 -74.890625 C 122.03125 -68.808594 123.171875 -63.867188 123.171875 -47.140625 L 123.171875 0 L 174.492188 0 L 174.492188 -50.179688 C 174.492188 -77.933594 168.792969 -94.28125 149.78125 -108.34375 C 163.847656 -118.609375 174.875 -130.015625 174.875 -163.46875 L 174.875 -211.75 L 123.550781 -211.75 L 123.550781 -164.230469 C 123.550781 -142.558594 112.90625 -131.914062 92.378906 -131.535156 Z M 70.710938 -131.535156 "/></g></g></g><g fill="#c4636d" fill-opacity="1"><g transform="translate(271.321388, 914.09183)"><g><path d="M 211.695312 -98.558594 C 199.199219 -83.984375 188.789062 -77.738281 173.519531 -77.738281 C 154.78125 -77.738281 136.734375 -88.148438 131.179688 -103.417969 C 127.015625 -113.828125 125.628906 -125.628906 125.628906 -153.390625 L 125.628906 -224.1875 C 125.628906 -272.078125 128.40625 -285.265625 142.285156 -297.066406 C 150.617188 -304.699219 161.027344 -308.171875 172.132812 -308.171875 C 188.09375 -308.171875 199.894531 -301.925781 213.082031 -285.265625 L 280.410156 -343.570312 C 246.398438 -378.273438 215.164062 -392.847656 175.601562 -392.847656 C 99.253906 -392.847656 40.257812 -339.40625 33.316406 -263.054688 C 31.925781 -251.257812 31.234375 -238.070312 31.234375 -219.328125 L 31.234375 -156.167969 C 31.234375 -105.5 36.09375 -83.984375 54.136719 -56.914062 C 81.207031 -15.964844 122.851562 6.941406 172.132812 6.941406 C 215.164062 6.941406 244.316406 -6.246094 279.019531 -41.644531 Z M 211.695312 -98.558594 "/></g></g></g><g fill="#c4636d" fill-opacity="1"><g transform="translate(1349.999917, 1368.999942)"><g><path d="M 6.984375 0 L 5.40625 0 L 5.40625 -10.171875 C 5.40625 -11.023438 5.429688 -11.828125 5.484375 -12.578125 C 5.347656 -12.441406 5.191406 -12.296875 5.015625 -12.140625 C 4.847656 -11.992188 4.078125 -11.363281 2.703125 -10.25 L 1.84375 -11.359375 L 5.609375 -14.28125 L 6.984375 -14.28125 Z M 6.984375 0 "/></g></g></g></svg>