<svg xmlns="http://www.w3.org/2000/svg" version="1.1" xmlns:xlink="http://www.w3.org/1999/xlink" width="512" height="512" x="0" y="0" viewBox="0 0 64 64" style="enable-background:new 0 0 512 512" xml:space="preserve" class=""><g><path d="M16.2 36.5a3.18 3.18 0 0 1-.57 1.95 1 1 0 0 0 1.66 1.12 5.15 5.15 0 0 0 .91-3.06 5.53 5.53 0 0 0-1.41-3.73 3.69 3.69 0 0 1 0-5l.09-.12a1 1 0 0 0-1.59-1.21l-.09.11a5.67 5.67 0 0 0 0 7.48 3.59 3.59 0 0 1 1 2.46zM8.2 36.5a3.18 3.18 0 0 1-.57 1.95 1 1 0 0 0 1.66 1.12 5.15 5.15 0 0 0 .91-3.06 5.53 5.53 0 0 0-1.41-3.73 3.69 3.69 0 0 1 0-5l.09-.12a1 1 0 0 0-1.59-1.21l-.09.11a5.67 5.67 0 0 0 0 7.48 3.59 3.59 0 0 1 1 2.46zM24.2 36.5a3.18 3.18 0 0 1-.57 1.95 1 1 0 0 0 1.66 1.12 5.15 5.15 0 0 0 .91-3.06 5.53 5.53 0 0 0-1.41-3.73 3.69 3.69 0 0 1 0-5l.09-.12a1 1 0 0 0-1.59-1.21l-.09.11a5.67 5.67 0 0 0 0 7.48 3.59 3.59 0 0 1 1 2.46zM60.23 38.76a2.46 2.46 0 0 0-1.82-.67l-15.47.8a3.1 3.1 0 0 0-2.79 2.18 27.51 27.51 0 0 0-4.45 1.06A17.54 17.54 0 0 1 32 43H4a1 1 0 0 0-1 1v1a5 5 0 0 0 5 5h20a5 5 0 0 0 5-5v-.1a29.7 29.7 0 0 0 3.27-.9A20.28 20.28 0 0 1 41 43h17.54a2.46 2.46 0 0 0 1.69-4.24zM47 14a10 10 0 1 0 10 10 10 10 0 0 0-10-10zm2.71 12.71a1 1 0 0 1-1.41 0l-2-2A1 1 0 0 1 46 24v-5a1 1 0 0 1 2 0v4.59l1.71 1.71a1 1 0 0 1 0 1.41z" fill="#c4636d" opacity="1" data-original="#000000" class=""></path></g></svg>