<svg xmlns="http://www.w3.org/2000/svg" version="1.1" xmlns:xlink="http://www.w3.org/1999/xlink" width="512" height="512" x="0" y="0" viewBox="0 0 300 300" style="enable-background:new 0 0 512 512" xml:space="preserve" class=""><g><g data-name="color line"><path fill="#c4636d" d="M229.83 247.58a79.83 79.83 0 0 0-159.66 0z" opacity="1" data-original="#ea6094" class=""></path><path fill="#f4dbe3" d="M137.9 168.66a79.85 79.85 0 0 0-67.73 78.92h135.46a79.84 79.84 0 0 0-67.73-78.92z" opacity="1" data-original="#f4b4c9" class=""></path><circle cx="150" cy="113.76" r="62.42" fill="#f4dbe3" opacity="1" data-original="#f4b4c9" class=""></circle><path fill="#c4636d" d="M185.88 171.26a67.3 67.3 0 1 0-71.76 0 84.76 84.76 0 0 0-48.79 76.67 5 5 0 0 0 5 5h159.34a5 5 0 0 0 5-5 84.76 84.76 0 0 0-48.79-76.67zm-54.36 71.67L178 178.72a74.85 74.85 0 0 1 46.47 64.21zM150 57.07a57.28 57.28 0 1 1-57.3 57.3 57.37 57.37 0 0 1 57.3-57.3zm1 141.82-17-19.16a66.9 66.9 0 0 0 30.76.29L151 199zm-30.63-19.47 23.14 26.1a5 5 0 0 0 1.84 1.3l-26.16 36.11h-43.7a74.82 74.82 0 0 1 44.86-63.51z" opacity="1" data-original="#3e3a39" class=""></path></g></g></svg>