<svg xmlns="http://www.w3.org/2000/svg" version="1.1" xmlns:xlink="http://www.w3.org/1999/xlink" width="512" height="512" x="0" y="0" viewBox="0 0 512 512" style="enable-background:new 0 0 512 512" xml:space="preserve" class=""><g><path d="M332.255 198.809v-92.596h-32.681L280.9 305.021l51.356 198.809h32.681c17.974 0 32.681-14.706 32.681-32.681V264.17c-36.099 0-65.363-29.263-65.363-65.361z" style="" fill="#a84f58" data-original="#ea5a7d" class="" opacity="1"></path><path d="M364.936 471.149v-179.9c-38.045-13.491-65.362-49.836-65.362-92.44v-92.596h-119.83v92.596c0 36.098-29.264 65.362-65.362 65.362V471.15c0 17.974 14.706 32.681 32.681 32.681h185.191c17.976-.001 32.682-14.708 32.682-32.682z" style="" fill="#c4636d" data-original="#f5849f" class="" opacity="1"></path><path d="M223.319 149.787v21.787c0 18.048 14.631 32.681 32.681 32.681s32.681-14.632 32.681-32.681v-21.787h-65.362z" style="" fill="#a84f58" data-original="#ea5a7d" class="" opacity="1"></path><path d="M288.681 141.617h-65.362a8.17 8.17 0 0 0-8.17 8.17v21.787c0 3.565.467 7.122 1.389 10.57a8.17 8.17 0 1 0 15.786-4.222 24.579 24.579 0 0 1-.836-6.349v-13.617h49.021v13.617c0 13.515-10.995 24.511-24.511 24.511-2.142 0-4.278-.281-6.348-.836a8.172 8.172 0 0 0-4.225 15.786 40.899 40.899 0 0 0 10.572 1.39c22.526 0 40.851-18.325 40.851-40.851v-21.787a8.165 8.165 0 0 0-8.167-8.169z" fill="#000000" opacity="1" data-original="#000000"></path><circle cx="163.927" cy="437.923" r="8.17" fill="#000000" opacity="1" data-original="#000000"></circle><circle cx="196.608" cy="454.264" r="8.17" fill="#000000" opacity="1" data-original="#000000"></circle><path d="M430.298 256h-32.681c-31.536 0-57.191-25.657-57.191-57.191v-92.596a8.17 8.17 0 0 0-8.17-8.17h-2.723V73.532C329.532 32.986 296.546 0 256 0s-73.532 32.986-73.532 73.532v24.511h-2.723a8.17 8.17 0 0 0-8.17 8.17v92.596c0 31.535-25.656 57.191-57.191 57.191H81.702c-22.526 0-40.851 18.325-40.851 40.851V503.83c0 4.513 3.658 8.17 8.17 8.17s8.17-3.657 8.17-8.17V296.851c0-13.515 10.995-24.511 24.511-24.511h24.511v198.809c0 22.526 18.325 40.851 40.851 40.851h217.872c22.526 0 40.851-18.325 40.851-40.851V272.34h24.511c13.516 0 24.511 10.996 24.511 24.511V503.83a8.17 8.17 0 0 0 8.17 8.17 8.17 8.17 0 0 0 8.17-8.17V296.851c0-22.526-18.325-40.851-40.851-40.851zM198.809 73.532c0-31.535 25.656-57.191 57.191-57.191s57.191 25.657 57.191 57.191v24.511H198.809V73.532zM364.936 495.66H147.064c-13.516 0-24.511-10.996-24.511-24.511V271.875c36.714-4.079 65.362-35.284 65.362-73.067v-84.426h1.599c.368.051.742.086 1.124.086a8.18 8.18 0 0 0 1.124-.086h128.752a8.062 8.062 0 0 0 1.689 0h1.884v84.426c0 37.783 28.648 68.988 65.362 73.067v199.274c-.002 13.515-10.997 24.511-24.513 24.511z" fill="#000000" opacity="1" data-original="#000000"></path></g></svg>