<svg xmlns="http://www.w3.org/2000/svg" version="1.1" xmlns:xlink="http://www.w3.org/1999/xlink" width="512" height="512" x="0" y="0" viewBox="0 0 512 512" style="enable-background:new 0 0 512 512" xml:space="preserve" class=""><g><path d="M339 259.3H172.5c-2.7 0-4.9-2.2-4.9-4.9s2.2-4.9 4.9-4.9H339c2.7 0 4.9 2.2 4.9 4.9 0 2.8-2.2 4.9-4.9 4.9z" fill="#c4636d" opacity="1" data-original="#000000"></path><path d="M296.8 259.3h-.6c-2.7-.3-4.6-2.7-4.3-5.4l6.2-53.1c.3-2.7 2.7-4.6 5.4-4.3s4.6 2.7 4.3 5.4l-6.2 53.1c-.2 2.5-2.3 4.3-4.8 4.3zM255.9 259.3c-2.7 0-4.9-2.2-4.9-4.9v-53.1c0-2.7 2.2-4.9 4.9-4.9s4.9 2.2 4.9 4.9v53.1c-.1 2.8-2.3 4.9-4.9 4.9zM214.7 259.3c-2.4 0-4.6-1.8-4.8-4.3l-6.2-53.1c-.3-2.7 1.6-5.1 4.3-5.4s5.1 1.6 5.4 4.3l6.2 53.1c.3 2.7-1.6 5.1-4.3 5.4h-.6z" fill="#c4636d" opacity="1" data-original="#000000"></path><path d="M337.6 285.5H173.7c-3.4 0-6.2-2.8-6.2-6.2v-62.6c-19-9.3-31-29.2-30-50.3.8-27.4 23.1-50.1 50.5-51.8 5.5-.3 11 .2 16.3 1.6 3-10.1 9-19.2 17.1-26.2 9.7-8.4 22-13 34.5-13 23.7 0 44.6 16.2 51.5 39.1 5.3-1.4 10.8-1.9 16.4-1.5 27.3 1.6 49.5 24.3 50.5 51.7.7 21.6-11.1 41.1-30.3 50.4v62.6c-.1 3.4-2.9 6.2-6.4 6.2zm-160.3-9.8h156.8v-62.2c0-2 1.2-3.7 3-4.5 17.2-7.2 27.9-23.8 27.3-42.4-.7-22.4-18.9-41-41.3-42.3-6-.4-11.9.4-17.6 2.5-1.3.5-2.8.4-4.1-.3-1.2-.7-2.2-1.9-2.4-3.3-4.1-20.8-22.7-36.5-43.1-36.5-20.6 0-39.1 15.7-43.1 36.5-.2 1.4-1.2 2.6-2.3 3.3-1.2.7-2.7.8-4.1.3-5.7-2-11.7-2.9-17.7-2.6-22.5 1.3-40.6 19.9-41.3 42.4v.1c-.8 18.2 10 35.2 27 42.2 1.8.7 3 2.5 3 4.5zM230.5 434.6c-1.3 0-2.7-.2-4.1-.4-5.3-1.1-9.8-4.2-12.8-8.7-2.9-4.5-3.9-9.8-2.7-15.1s4.4-9.8 9.2-12.7L349.9 319c-2.8-6.3-3.6-13.4-2.1-20.3 1.9-8.6 7-15.9 14.4-20.7l59-37.7c2.2-1.4 5.3-.7 6.7 1.5s.7 5.3-1.5 6.7l-59 37.7c-5.2 3.3-8.8 8.5-10.2 14.6-1.3 6-.2 12.2 3.2 17.4.7 1.1.9 2.5.7 3.7-.3 1.2-1.1 2.4-2.2 3.1l-133.8 81.1c-2.4 1.4-4.1 3.7-4.7 6.5-.6 2.7-.1 5.3 1.3 7.6 1.5 2.3 3.9 3.9 6.6 4.5s5.4 0 7.7-1.5L365.9 336c1.1-.7 2.4-1 3.7-.7 1.2.2 2.4 1 3.1 2.2 3.3 5.2 8.5 8.8 14.5 10.2 6 1.3 12.2.2 17.5-3.1l58.8-37.5c2.2-1.4 5.3-.7 6.7 1.5s.7 5.3-1.5 6.7L410 352.8c-7.5 4.7-16.3 6.2-24.8 4.3-6.9-1.5-13-5.2-17.7-10.4l-126 84.5c-3.4 2.2-7.2 3.4-11 3.4z" fill="#c4636d" opacity="1" data-original="#000000"></path><path d="M407.3 353.4c-1.6 0-3.2-.8-4.1-2.2l-42.4-66.5c-1.4-2.2-.7-5.3 1.5-6.7s5.3-.7 6.7 1.5l42.4 66.5c1.4 2.2.7 5.3-1.5 6.7-.8.4-1.7.7-2.6.7z" fill="#c4636d" opacity="1" data-original="#000000"></path><path d="M393.1 331.2c-1.6 0-3.2-.8-4.2-2.2-1.4-2.2-.7-5.3 1.5-6.7l58.8-37.5c2.2-1.4 5.3-.7 6.7 1.5s.7 5.3-1.5 6.7l-58.8 37.5c-.7.5-1.6.7-2.5.7zM379.1 309.1c-1.6 0-3.2-.8-4.2-2.2-1.4-2.2-.7-5.3 1.5-6.7l58.8-37.5c2.2-1.4 5.3-.7 6.7 1.5s.7 5.3-1.5 6.7l-58.8 37.5c-.7.4-1.6.7-2.5.7zM286.7 435.1c-4.2 0-8.2-1.2-11.7-3.4-.4-.2-.7-.4-.9-.7l-18.8-12.7c-2.2-1.5-2.8-4.6-1.3-6.7 1.5-2.2 4.6-2.8 6.7-1.3l19.2 12.9c.2.1.2.2.4.2 2.7 1.7 6 2.3 9.2 1.6s5.8-2.5 7.5-5.2 2.2-5.9 1.5-9.1-2.8-6.1-5.7-7.8l-7.5-4.5c-2.3-1.4-3.1-4.4-1.7-6.7s4.4-3.1 6.7-1.7l7.4 4.5c5.2 3.1 8.8 8.1 10.2 13.9 1.3 5.7.4 11.7-2.7 16.6-3.1 4.8-7.9 8.2-13.6 9.4-1.7.5-3.3.7-4.9.7zM231.4 401.3c-.9 0-1.9-.2-2.7-.8l-78.5-53c-1.2-.7-2.7-.8-3.9-.2-17.9 9.6-43.1 7.1-64.1-6.2-14-8.9-26.7-23.1-34.1-38-8.4-16.8-9.2-32.2-2.1-43.3 4.7-7.4 12.8-12.6 23.5-14.9 19.7-4.3 46 1.1 65.5 13.6 21.1 13.5 34 35.3 32.7 55.6-.1 1.3.7 2.6 1.8 3.3l94.2 56.9c2.3 1.4 3.1 4.4 1.7 6.7s-4.4 3.1-6.7 1.7l-94.3-57c-4.3-2.7-6.8-7.3-6.6-12.3 1-16.7-10.1-35.1-28.2-46.8-17.2-11-41.1-16-58.1-12.2-5.6 1.2-13.2 4.1-17.3 10.7-5.1 8-4.1 20.2 2.6 33.7 6.7 13.3 18.2 26.1 30.7 34.1 18.2 11.5 39.5 13.8 54.4 5.8 4.5-2.3 9.7-2 13.9.7l78.5 53c2.2 1.5 2.8 4.6 1.3 6.7-1.1 1.4-2.6 2.2-4.2 2.2z" fill="#c4636d" opacity="1" data-original="#000000"></path></g></svg>