<svg xmlns="http://www.w3.org/2000/svg" version="1.1" xmlns:xlink="http://www.w3.org/1999/xlink" width="512" height="512" x="0" y="0" viewBox="0 0 512 512" style="enable-background:new 0 0 512 512" xml:space="preserve"><g><path d="M462.2 197.6v36.7H49.8v-36.7h299.3c.5.1 1 .1 1.5 0zM430.7 56c-1.4 7.1-4.6 14-9.4 20.1-1 1.2-1.5 2.7-1.3 4.3.2 1.3.8 2.5 1.7 3.4l.1.1c1 .9 2.2 1.5 3.6 1.6 3.7.4 7 1.1 9.8 2.1-5.8 6.8-13.2 11.7-21.5 14.2l-28.3-28.7c2.9-8.1 7.9-15.5 14.4-21 1 2.8 1.7 6.1 2.1 9.8.1 1.4.6 2.6 1.6 3.6 2 1.9 5 2.2 7.3.7.1-.1.3-.2.4-.3 5.8-4.9 12.6-8.4 19.5-9.9zM410.4 112.6c4.6 4.8 7 11.2 6.5 17.8-.4 6.4-3.5 12.1-8.5 15.9-.2.1-.3.2-.5.3-.1.1-.2.2-.4.3l-21.1 14.6-12.1-12c-1.9-1.9-5-1.9-6.9 0s-1.9 5 0 6.9l10.9 10.8-29.9 20.7h-82.3l31.1-44.8 9.2 9.3c1 .9 2.2 1.4 3.5 1.4s2.5-.5 3.5-1.4c1.9-1.9 1.9-5 0-6.9l-10.6-10.6L329 97.2l10.4 10.5c1 .9 2.2 1.4 3.5 1.4s2.5-.5 3.4-1.4c1.9-1.9 1.9-5 0-6.9l-11.7-11.7 6.1-8.8c.6-.9 1.2-1.6 1.8-2.3 4-4.7 9.7-7.4 15.9-7.6 6.3-.2 12.5 2.3 17 6.8l.9.9 32.1 32.4c.2.2.4.5.6.6zM332.1 435.1v23c0 1-.9 1.9-1.9 1.9H181.9c-1.1 0-1.9-.9-1.9-1.9v-22.9c12 2.6 24.5 3.9 37.3 3.9h77.4c12.8-.1 25.3-1.4 37.4-4zM224.8 65.2c3.4 3.4 5.3 7.9 5.3 12.7 0 4.9-1.9 9.5-5.3 12.9-.5.5-1 1-1.6 1.4l-25.4-25.4c.5-.5 1-1.1 1.4-1.6 3.4-3.4 8-5.3 12.8-5.3s9.4 1.9 12.8 5.3zM167.8 187.9l58.9-58.9c-2.6 22-12 42.5-27.1 58.9zM219.6 122.2 154 187.9h-19.8c.8-1.9 1.7-3.9 2.7-6 4.4-9.5 10.3-18.2 17.5-26 17.1-18.8 40.3-30.7 65.2-33.7z" fill="#c4636d" opacity="1" data-original="#000000"></path><circle cx="140" cy="75.9" r="18.1" fill="#c4636d" opacity="1" data-original="#000000"></circle><path d="M144.2 152.8c-5.1 5.9-9.4 12.3-13.1 19L81.3 122c23.7 2.8 46 13.7 62.9 30.8zM74.8 129.3l51.8 51.8c-1 2.3-2 4.6-2.8 6.8h-21.9c-15.1-16.3-24.5-36.7-27.1-58.6zM462.2 244.1v17.6c0 78.3-54 144.2-126.7 162.5-13.1 3.3-26.7 5-40.8 5h-77.4c-14.2 0-28-1.8-41.2-5.1-72.5-18.4-126.3-84.2-126.3-162.4v-17.6zM289.1 101.6c.1.3.1.6.1 1 0 .3 0 .6-.1 1l-.3.9c-.1.3-.3.6-.5.9s-.4.5-.6.7c-.9 1.1-2.1 1.6-3.4 1.6-.3 0-.6 0-1-.1l-.9-.3c-.3-.1-.6-.3-.9-.5s-.5-.4-.7-.6c-.9-.9-1.4-2.2-1.4-3.5s.5-2.6 1.4-3.5c.2-.2.5-.4.7-.6.3-.2.6-.3.9-.5l.9-.3c1.6-.3 3.3.2 4.4 1.3.2.2.4.5.6.7.2.3.3.5.5.9.1.2.2.5.3.9zM268.7 86.6c.1.3.1.6.1 1 0 1.3-.5 2.6-1.4 3.5-.2.2-.5.4-.7.6-.3.2-.6.3-.9.5l-.9.3c-.5 0-.8.1-1.1.1s-.6 0-1-.1l-.9-.3c-.3-.1-.6-.3-.9-.5s-.5-.4-.7-.6c-.9-.9-1.4-2.2-1.4-3.5 0-.3 0-.6.1-1l.3-.9c.1-.3.3-.6.5-.9s.4-.5.6-.7.5-.4.7-.6c.3-.2.6-.3.9-.5l.9-.3c.6-.1 1.3-.1 1.9 0l.9.3c.3.1.6.3.9.5s.5.4.7.6.4.5.6.7c.2.3.3.6.5.9.1.2.2.5.3.9zM265.9 113.2c.1.3.1.6.1 1 0 .3 0 .6-.1 1l-.3.9c-.1.3-.3.6-.5.9s-.4.5-.6.7-.5.4-.7.6c-.3.2-.6.3-.9.5l-.9.3c-.2.1-.6.1-.9.1s-.6 0-1-.1l-.9-.3c-.3-.1-.6-.3-.9-.5s-.5-.4-.7-.6-.4-.5-.6-.7c-.2-.3-.3-.6-.5-.9l-.3-.9c-.1-.3-.1-.6-.1-1 0-.3 0-.6.1-1l.3-.9c.1-.3.3-.6.5-.9s.4-.5.6-.7.5-.4.7-.6c.3-.2.6-.3.9-.5l.9-.3c.6-.1 1.3-.1 1.9 0l.9.3c.3.1.6.3.9.5s.5.4.7.6.4.5.6.7c.2.3.3.6.5.9.1.3.2.5.3.9z" fill="#c4636d" opacity="1" data-original="#000000"></path></g></svg>