<svg xmlns="http://www.w3.org/2000/svg" version="1.1" xmlns:xlink="http://www.w3.org/1999/xlink" width="512" height="512" x="0" y="0" viewBox="0 0 32 32" style="enable-background:new 0 0 512 512" xml:space="preserve" class=""><g><g data-name="16 - pencil"><path d="m20.42 5.83-16 16a1.06 1.06 0 0 0-.24.39l-2.17 6.5A1 1 0 0 0 3 30a1.19 1.19 0 0 0 .32 0l6.5-2.17a1.06 1.06 0 0 0 .39-.24l16-16zM29.71 6.63l-4.34-4.34a1 1 0 0 0-1.41 0l-2.13 2.13 5.75 5.75L29.71 8a1 1 0 0 0 0-1.37z" fill="#a84f58" opacity="1" data-original="#000000" class=""></path></g></g></svg>