<svg xmlns="http://www.w3.org/2000/svg" version="1.1" xmlns:xlink="http://www.w3.org/1999/xlink" width="512" height="512" x="0" y="0" viewBox="0 0 512 512" style="enable-background:new 0 0 512 512" xml:space="preserve"><g><path d="M257.41 217.75c.77 1.94 2.03 2.32 3.77 1.16s3.48-2.9 5.22-5.22 3.48-4.83 5.22-7.54c1.74-2.7 2.99-4.83 3.77-6.38 7.34-11.21 14.4-22.23 21.17-33.06 6.76-10.82 13.43-21.84 20.01-33.06 1.93-3.09 4.06-6.28 6.38-9.57 2.32-3.28 5.02-6.09 8.12-8.41 1.93-1.16 4.25-2.12 6.96-2.9 2.7-.77 6.18.2 10.44 2.9 4.25 2.32 6.67 5.13 7.25 8.41.58 3.29-1.84 9.57-7.25 18.85-6.58 12.38-13.34 24.36-20.3 35.96l-20.88 34.8c-3.1 5.42-6.38 10.64-9.86 15.66-3.48 5.03-6.96 10.25-10.44 15.66-3.1 5.03-5.51 8.99-7.25 11.89s-2.61 5.61-2.61 8.12c0 2.52.58 5.42 1.74 8.7 1.16 3.29 3.09 7.83 5.8 13.63 6.57 12.76 12.85 25.62 18.85 38.57 5.99 12.96 12.27 25.81 18.85 38.58 3.86 7.74 7.83 15.18 11.89 22.33 4.06 7.16 7.83 14.6 11.31 22.33 2.32 5.03 2.12 9.28-.58 12.76-2.71 3.48-6.96 6.76-12.76 9.86-1.94 1.16-4.45.29-7.54-2.61-3.1-2.9-6.29-6.86-9.57-11.89-3.29-5.02-6.67-10.63-10.15-16.82a879.93 879.93 0 0 1-9.86-17.98c-7.74-14.3-14.41-27.74-20.01-40.32-5.61-12.56-12.09-26.19-19.43-40.89-1.16-1.54-2.71-1.83-4.64-.87-1.94.97-3.77 2.52-5.51 4.64-1.74 2.13-3.48 4.45-5.22 6.96-1.74 2.52-3 4.55-3.77 6.09-6.19 10.44-11.8 19.53-16.82 27.26-5.03 7.74-10.64 16.82-16.82 27.26-1.94 3.87-4.35 8.12-7.25 12.76s-5.51 8.7-7.83 12.18-5.42 4.93-9.28 4.35c-3.87-.58-7.64-2.12-11.31-4.64-3.68-2.51-6.58-5.51-8.7-8.99-2.13-3.48-2.42-6.76-.87-9.86 6.18-9.66 13.43-20.68 21.75-33.06 8.31-12.37 16.14-24.26 23.49-35.67 7.34-11.4 13.72-21.55 19.14-30.45 5.41-8.89 8.5-14.88 9.28-17.98 1.16-1.54 1.25-4.83.29-9.86-.97-5.02-2.52-10.63-4.64-16.82-2.13-6.18-4.45-12.47-6.96-18.85-2.52-6.38-4.74-12.08-6.67-17.11-5.03-14.3-10.15-28.42-15.37-42.35s-10.54-28.03-15.95-42.35c-.78-1.93-1.36-4.06-1.74-6.38-.39-2.32-.97-4.44-1.74-6.38-1.16-4.25-1.65-7.83-1.45-10.73.19-2.9 3.19-5.89 8.99-8.99 5.41-3.09 9.76-3.38 13.05-.87 3.28 2.52 6.28 6.67 8.99 12.47 3.86 8.51 7.34 16.92 10.44 25.23a4566.4 4566.4 0 0 1 9.28 25.23c3.86 11.99 8.12 23.98 12.76 35.96 4.64 12.01 10.24 24.77 16.82 38.3z" fill="#a84f58" opacity="1" data-original="#000000"></path></g></svg>