<?xml version="1.0" encoding="iso-8859-1"?>
<!-- Generator: Adobe Illustrator 19.0.0, SVG Export Plug-In . SVG Version: 6.00 Build 0)  -->
<svg version="1.1" id="Capa_1" xmlns="http://www.w3.org/2000/svg" xmlns:xlink="http://www.w3.org/1999/xlink" x="0px" y="0px"
	 viewBox="0 0 512.001 512.001" style="enable-background:new 0 0 512.001 512.001;" xml:space="preserve">
<g>
	<g>
		<path d="M511.55,154.472c-0.318-4.129-3.923-7.221-8.056-6.899c-4.13,0.319-7.219,3.926-6.899,8.056
			c0.279,3.61,0.41,7.212,0.402,10.801h-17.22V99.976c3.952,7.054,7.276,14.473,9.934,22.241c1.342,3.92,5.606,6.008,9.524,4.668
			c3.919-1.341,6.01-5.605,4.668-9.524c-5.817-17.002-14.472-32.519-25.782-46.311c-0.037-0.047-0.075-0.093-0.113-0.138
			c-3.145-3.826-6.483-7.527-10.036-11.08c-3.548-3.548-7.234-6.877-11.035-9.995c-0.065-0.056-0.13-0.111-0.196-0.164
			c-29.542-24.152-66.2-35.36-102.347-33.623c-0.172-0.012-0.344-0.026-0.519-0.026c-0.498,0-0.984,0.051-1.455,0.144
			c-30.625,1.872-60.783,13.04-85.824,33.518c-0.054,0.044-0.107,0.088-0.159,0.134c-3.809,3.124-7.502,6.458-11.057,10.014
			l-19.181,19.181c-0.446,0.446-0.907,0.638-1.338,0.686c-0.025,0.002-0.051,0.002-0.076,0.004c-0.408,0.03-0.788-0.063-1.095-0.19
			c-0.649-0.269-1.422-0.856-1.422-2.128V59.834c0-1.594-0.083-3.168-0.215-4.729c-0.009-0.155-0.017-0.31-0.035-0.462
			c-2.629-28.27-26.475-50.476-55.418-50.476c-28.944,0-52.79,22.207-55.417,50.477c-0.018,0.152-0.027,0.306-0.035,0.461
			c-0.132,1.561-0.215,3.135-0.215,4.729V179.26c0,9.686-3.771,18.791-10.62,25.64l-29.741,29.737L47.023,201.09
			c-3.137-3.137-7.308-4.865-11.745-4.865s-8.608,1.728-11.745,4.865L4.857,219.766c-6.476,6.476-6.475,17.013,0,23.489
			l33.548,33.548l-11.554,11.555c-8.013,8.013-9.164,20.603-2.737,29.937c50.165,72.854,112.54,135.229,185.394,185.394
			c4.041,2.782,8.691,4.145,13.317,4.144c6.06,0,12.077-2.337,16.621-6.882l16.855-16.855c0.001-0.001,0.003-0.002,0.004-0.004
			c0.001-0.001,0.003-0.003,0.004-0.004l63.112-63.112l0.001-0.001l0.001-0.001l148.548-148.548
			C499.059,241.338,514.944,198.345,511.55,154.472z M176.597,19.167c18.317,0,33.84,12.177,38.913,28.859h-77.825
			C142.756,31.344,158.279,19.167,176.597,19.167z M135.932,63.027h81.332v14.358c0,7.023,4.193,13.298,10.682,15.986
			c0.008,0.003,0.016,0.006,0.024,0.009v73.049h-92.038V63.027z M135.878,181.43h92.091v103.403h-34.083l-71.193-71.193
			C130.763,204.736,135.379,193.451,135.878,181.43z M227.969,299.834v19.082l-19.083-19.082H227.969z M15.464,232.648
			c-0.627-0.627-0.627-1.649,0-2.276l18.676-18.676c0.389-0.389,0.834-0.471,1.138-0.471s0.748,0.082,1.138,0.472l33.548,33.548
			l-20.952,20.952L15.464,232.648z M251,468.183L107.768,324.951c-2.929-2.929-7.678-2.929-10.606,0
			c-2.929,2.929-2.929,7.678,0,10.607L240.394,478.79l-11.555,11.555c-2.897,2.897-7.449,3.314-10.824,0.99
			C146.674,442.212,85.593,381.131,36.469,309.79c-2.323-3.374-1.907-7.927,0.99-10.824l11.556-11.556l23.928,23.928
			c1.464,1.464,3.384,2.197,5.303,2.197c1.919,0,3.839-0.732,5.303-2.197c2.929-2.929,2.929-7.678,0-10.606l-23.928-23.928
			l52.511-52.511l73.342,73.343c0.002,0.002,0.003,0.003,0.005,0.005l44.688,44.688l73.345,73.345L251,468.183z M314.117,405.066
			l-71.149-71.149v-34.082h103.403v72.976h0.001L314.117,405.066z M346.372,284.834H242.969V181.43h103.403V284.834z
			 M346.372,166.43H242.969V92.508c1.38-0.77,2.675-1.729,3.833-2.887l19.182-19.181c2.592-2.592,5.275-5.06,8.033-7.413h72.355
			V166.43z M346.372,48.026h-50.881c15.616-8.782,32.852-14.347,50.881-16.363V48.026z M361.373,30.807c0.1,0,0.2-0.004,0.301-0.004
			c23.557,0,46.194,5.983,66.181,17.223h-66.482V30.807z M361.373,63.027h87.956c2.759,2.353,5.442,4.821,8.034,7.413
			c2.594,2.594,5.061,5.274,7.413,8.029v87.961H361.373V63.027z M361.373,357.811v-57.977h57.977L361.373,357.811z M457.363,261.82
			l-23.014,23.014h-72.977V181.43h103.403v72.352h0.001C462.424,256.548,459.953,259.23,457.363,261.82z M479.776,232.202V181.43
			h16.357C494.103,199.319,488.526,216.568,479.776,232.202z"/>
	</g>
</g>
<g>
	<g>
		<path d="M204.05,352.706c-0.282-4.134-3.869-7.246-7.995-6.97c-3.792,0.264-7.504-1.127-10.183-3.805
			c-2.678-2.679-4.065-6.39-3.805-10.182c0.284-4.132-2.837-7.712-6.969-7.996c-4.131-0.287-7.712,2.836-7.996,6.969
			c-0.558,8.119,2.418,16.071,8.163,21.816c5.289,5.289,12.445,8.23,19.882,8.23c0.643,0,1.289-0.022,1.934-0.066
			C201.213,360.418,204.333,356.838,204.05,352.706z"/>
	</g>
</g>
<g>
	<g>
		<path d="M239.799,371.388c-2.929-2.929-7.678-2.929-10.606,0l-6.92,6.92c-2.929,2.929-2.929,7.678,0,10.606
			c1.464,1.464,3.384,2.197,5.303,2.197s3.839-0.732,5.303-2.197l6.92-6.92C242.728,379.065,242.728,374.316,239.799,371.388z"/>
	</g>
</g>
<g>
	<g>
		<path d="M156.416,288.005c-2.928-2.93-7.677-2.93-10.606-0.001l-6.92,6.921c-2.929,2.929-2.929,7.678,0,10.606
			c1.464,1.464,3.384,2.197,5.303,2.197s3.839-0.732,5.303-2.197l6.92-6.92C159.345,295.682,159.345,290.933,156.416,288.005z"/>
	</g>
</g>
<g>
</g>
<g>
</g>
<g>
</g>
<g>
</g>
<g>
</g>
<g>
</g>
<g>
</g>
<g>
</g>
<g>
</g>
<g>
</g>
<g>
</g>
<g>
</g>
<g>
</g>
<g>
</g>
<g>
</g>
</svg>
