<?xml version="1.0" encoding="UTF-8" standalone="no"?>
<!-- Created with Inkscape (http://www.inkscape.org/) -->

<svg
   version="1.1"
   id="svg651"
   xml:space="preserve"
   width="682.66669"
   height="682.66669"
   viewBox="0 0 682.66669 682.66669"
   xmlns="http://www.w3.org/2000/svg"
   xmlns:svg="http://www.w3.org/2000/svg"><defs
     id="defs655"><clipPath
       clipPathUnits="userSpaceOnUse"
       id="clipPath665"><path
         d="M 0,512 H 512 V 0 H 0 Z"
         id="path663" /></clipPath></defs><g
     id="g657"
     transform="matrix(1.3333333,0,0,-1.3333333,0,682.66667)"><g
       id="g659"><g
         id="g661"
         clip-path="url(#clipPath665)"><g
           id="g667"
           transform="translate(149.6807,382.0215)"><path
             d="m 0,0 -2.787,-79.298 c 0,-6.596 -6.489,-12.639 -13.085,-12.639 -5.116,0 -9.663,3.259 -11.309,8.103 l -4.537,13.6 -1.054,5.114 -2.022,5.952 c -5.328,11.967 -15.472,20.286 -27.133,23.69 -1.053,0.308 -2.571,0.017 -3.647,0.244 -8.511,1.791 -16.171,-1.214 -24.724,-5.021 -21.6,-9.618 -29.702,-32.187 -20.085,-53.788 l 86.218,-251.478 265.021,-3 -5.75,106.904 5.75,57.676 v 21.179 l -5.792,53.145 5.792,56.796 v 21.309 l -0.26,1.565 -1.979,30.245 c 0,21.01 -3.451,39.708 -12.787,56.978 -0.434,0.804 -0.938,3.398 -0.938,3.398 -16.184,28.395 -43.418,49.676 -75.849,57.986 0,0 -19.929,0.829 -30.437,0.829 -9.796,0 -28.454,-0.34 -28.454,-0.34 -0.8,-0.19 -1.596,-0.389 -2.389,-0.595 0,0 -2.631,-0.934 -3.996,-1.344 C 33.577,102.142 0,55.355 0,0"
             style="fill:#ff8086;fill-opacity:1;fill-rule:nonzero;stroke:none"
             id="path669" /></g><g
           id="g671"
           transform="translate(204.2529,271.3101)"><path
             d="m 0,0 -63.08,-63.48 -66.67,66.67 42.405,42.402 5.875,-17.302 c 0.82,-2.42 2.37,-4.44 4.35,-5.86 1.99,-1.42 4.4,-2.24 6.96,-2.24 0.63,0 1.247,0.049 1.849,0.143 3.104,0.481 6.572,1.323 8.399,3.708 1.539,2.011 2.457,5.347 2.457,8.074 l -0.058,22.543 z"
             style="fill:#fff0af;fill-opacity:1;fill-rule:nonzero;stroke:none"
             id="path673" /></g><g
           id="g675"
           transform="translate(202.4131,407.5601)"><path
             d="m 0,0 -56.38,-54.51 1.435,6.928 0.681,22.043 c 0,22.16 4.82,41.628 14.936,59.575 0.553,0.98 0.888,4.434 0.888,4.434 z"
             style="fill:#fff0af;fill-opacity:1;fill-rule:nonzero;stroke:none"
             id="path677" /></g><g
           id="g679"
           transform="translate(298.7236,500.6812)"><path
             d="m 0,0 -29.69,-28.711 -29.201,29.2 c 9.13,2.18 18.651,3.33 28.451,3.33 C -19.931,3.819 -9.73,2.49 0,0"
             style="fill:#fff0af;fill-opacity:1;fill-rule:nonzero;stroke:none"
             id="path681" /></g><g
           id="g683"
           transform="translate(390.5332,382.25)"><path
             d="M 0,0 0.004,-31.74 -53.96,22.21 -15.961,60.445 C -5.791,42.615 0,21.99 0,0"
             style="fill:#fff0af;fill-opacity:1;fill-rule:nonzero;stroke:none"
             id="path685" /></g><g
           id="g687"
           transform="translate(205.3428,143.6602)"><path
             d="m 0,0 -91.08,-91.26 -18.539,75.493 -13.211,20.917 58.66,59.02 z"
             style="fill:#fff0af;fill-opacity:1;fill-rule:nonzero;stroke:none"
             id="path689" /></g><g
           id="g691"
           transform="translate(271.2129,338.6899)"><path
             d="m 0,0 64.43,-64.49 -65.45,-65.57 -65.94,62.68 z"
             style="fill:#fff0af;fill-opacity:1;fill-rule:nonzero;stroke:none"
             id="path693" /></g><g
           id="g695"
           transform="translate(390.5371,329.2002)"><path
             d="M 0,0 V -109.94 L -54.895,-55 Z"
             style="fill:#fff0af;fill-opacity:1;fill-rule:nonzero;stroke:none"
             id="path697" /></g><g
           id="g699"
           transform="translate(390.5371,198.0801)"><path
             d="m 0,0 -0.003,-71.58 -2.045,-12.819 2.044,-19.421 -53.29,50.65 z"
             style="fill:#fff0af;fill-opacity:1;fill-rule:nonzero;stroke:none"
             id="path701" /></g><g
           id="g703"
           transform="translate(74.5029,274.5)"><path
             d="m 0,0 -25.12,-25.11 -8.766,38.589 c -2.52,5.66 -4.085,10.031 -4.085,15.851 0,3.23 -2.489,11.13 -2.489,11.13 z"
             style="fill:#fff0af;fill-opacity:1;fill-rule:nonzero;stroke:none"
             id="path705" /></g><g
           id="g707"
           transform="translate(337.2432,144.9102)"><path
             d="m 0,0 -66.65,-66.5 -65.25,65.25 64.85,64.97 z"
             style="fill:#fff0af;fill-opacity:1;fill-rule:nonzero;stroke:none"
             id="path709" /></g><g
           id="g711"
           transform="translate(336.5732,404.46)"><path
             d="m 0,0 -65.36,-65.77 -68.8,68.87 66.62,64.41 z"
             style="fill:#fff0af;fill-opacity:1;fill-rule:nonzero;stroke:none"
             id="path713" /></g><g
           id="g715"
           transform="translate(87.7539,346.5439)"><path
             d="m 0,0 c -1.81,-0.54 -3.611,-1.204 -5.391,-1.994 -15.94,-7.1 -25.41,-22.74 -25.41,-39.13 0,-5.63 1.11,-11.35 3.47,-16.84 l -14.699,9.101 -11.681,17.279 c 2.89,12.68 11.52,23.89 24.32,29.59 C -19.761,2.296 -9.39,2.74 0,0"
             style="fill:#e5646e;fill-opacity:1;fill-rule:nonzero;stroke:none"
             id="path717" /></g><g
           id="g719"
           transform="translate(100.543,166.9502)"><path
             d="m 0,0 -8.352,-14.631 -9.678,-3.509 -33.13,100.58 5.978,11.652 12.082,6.398 z"
             style="fill:#e5646e;fill-opacity:1;fill-rule:nonzero;stroke:none"
             id="path721" /></g><g
           id="g723"
           transform="translate(237.5557,500.6045)"><path
             d="m 0,0 c -27.85,-13.97 -49.623,-38.265 -60.303,-67.864 l -10.125,2.557 -3.155,10.733 c 5.061,8.25 11.061,15.86 17.87,22.67 C -40.543,-16.734 -21.42,-5.53 0,0"
             style="fill:#e5646e;fill-opacity:1;fill-rule:nonzero;stroke:none"
             id="path725" /></g><g
           id="g727"
           transform="translate(170.0332,376.25)"><path
             d="m 0,0 v -72.42 l -16.183,5.24 -7.817,17.57 v 26.41 l 11.96,18.163 z"
             style="fill:#e5646e;fill-opacity:1;fill-rule:nonzero;stroke:none"
             id="path729" /></g><g
           id="g731"
           transform="translate(177.2529,432.7402)"><path
             d="m 0,0 c -4.67,-12.95 -7.22,-26.92 -7.22,-41.49 v -15 l -24,-23.2 v 29.2 c 0,23.37 6.56,45.21 17.94,63.78 z"
             style="fill:#f6d190;fill-opacity:1;fill-rule:nonzero;stroke:none"
             id="path733" /></g><g
           id="g735"
           transform="translate(67.4434,267.4399)"><path
             d="M 0,0 -18.061,-18.05 -30.78,20.59 c -2.521,5.66 -3.71,11.57 -3.71,17.39 0,3.23 0.37,6.43 1.09,9.54 L -7.021,21.14 c 0.081,-0.18 0.161,-0.37 0.241,-0.55 z"
             style="fill:#f6d190;fill-opacity:1;fill-rule:nonzero;stroke:none"
             id="path737" /></g><g
           id="g739"
           transform="translate(146.0332,326.6401)"><path
             d="M 0,0 V -12.17 -23.2 c 0,-6.59 -5.34,-11.94 -11.94,-11.94 h 24 c 6.6,0 11.94,5.35 11.94,11.94 v 0.39 z"
             style="fill:#f6d190;fill-opacity:1;fill-rule:nonzero;stroke:none"
             id="path741" /></g><g
           id="g743"
           transform="translate(245.1279,116.5317)"><path
             d="m 0,0 -6.426,-14.077 h -70.128 l -1.574,15.865 21.21,8.18 h 34.29 z"
             style="fill:#e5646e;fill-opacity:1;fill-rule:nonzero;stroke:none"
             id="path745" /></g><g
           id="g747"
           transform="translate(376.4893,117.936)"><path
             d="m 0,0 -2.917,-20.851 -74.104,0.681 -9.532,13.532 28.854,15.202 h 37.82 z"
             style="fill:#e5646e;fill-opacity:1;fill-rule:nonzero;stroke:none"
             id="path749" /></g><g
           id="g751"
           transform="translate(188.21,126.5)"><path
             d="m 0,0 h -71.452 c -1.727,0 -3.259,1.108 -3.799,2.749 l -12.416,37.701 -18.03,-18.14 10.746,-32.629 21.002,-63.781 0.002,0.002 V -74.1 l 18.05,18.08 -0.002,0.007 z"
             style="fill:#f6d190;fill-opacity:1;fill-rule:nonzero;stroke:none"
             id="path753" /></g><g
           id="g755"
           transform="translate(318.79,126.5)"><path
             d="M 0,0 -48.199,-48.09 -96.29,0 Z"
             style="fill:#f6d190;fill-opacity:1;fill-rule:nonzero;stroke:none"
             id="path757" /></g><g
           id="g759"
           transform="translate(390.5342,126.5)"><path
             d="M 0,0 -0.004,-32.24 -33.924,0 Z"
             style="fill:#f6d190;fill-opacity:1;fill-rule:nonzero;stroke:none"
             id="path761" /></g><g
           id="g763"
           transform="translate(468.0479,18.5)"><path
             d="M 0,0 H -59.548 V 27.819 L -46.545,29 H 1 c 5.522,0 10,-3.358 10,-7.5 V 12 L 10,7.5 C 10,3.358 5.522,0 0,0"
             style="fill:#ff8086;fill-opacity:1;fill-rule:nonzero;stroke:none"
             id="path765" /></g><g
           id="g767"
           transform="translate(479.043,30.5)"><path
             d="M 0,0 V -5.5 C 0,-9.64 -4.47,-13 -10,-13 H -70.54 L -74.149,2.5 -70.54,17 h 13 V 3 c 0,-1.657 1.344,-3 3,-3 z"
             style="fill:#e5646e;fill-opacity:1;fill-rule:nonzero;stroke:none"
             id="path769" /></g><g
           id="g771"
           transform="translate(402.5,108.5)"><path
             d="M 0,0 H -310.997 L -318,-1 c -3.313,0 -6,-2.687 -6,-6 l 1.013,-86.075 c 0,-3.313 2.686,-6 6,-6 L -1,-100 c 3.313,0 6,2.687 6,6 l 1,7 v 35.98 L 2.585,-43.5 6,-36.01 V -6 C 6,-2.687 3.313,0 0,0"
             style="fill:#ff8086;fill-opacity:1;fill-rule:nonzero;stroke:none"
             id="path773" /></g><g
           id="g775"
           transform="translate(408.5029,21.5)"><path
             d="m 0,0 v -8 c 0,-3.313 -2.687,-6 -6,-6 h -319 c -3.32,0 -6,2.69 -6,6 v 43.96 l 1.795,6.944 L -331,50.96 V 81 c 0,3.31 2.68,6 6,6 h 8 V 5 c 0,-2.761 2.238,-5 5,-5 z"
             style="fill:#e5646e;fill-opacity:1;fill-rule:nonzero;stroke:none"
             id="path777" /></g><g
           id="g779"
           transform="translate(408.915,47.5)"><path
             d="m 0,0 h 60.038 c 5.523,0 10,-3.358 10,-7.5 v -15 c 0,-4.142 -4.477,-7.5 -10,-7.5 H 0.255"
             style="fill:none;stroke:#000000;stroke-width:15;stroke-linecap:round;stroke-linejoin:round;stroke-miterlimit:10;stroke-dasharray:none;stroke-opacity:1"
             id="path781" /></g><g
           id="g783"
           transform="translate(71.5625,180.0386)"><path
             d="M 0,0 23.7,-71.107"
             style="fill:none;stroke:#000000;stroke-width:15;stroke-linecap:round;stroke-linejoin:round;stroke-miterlimit:10;stroke-dasharray:none;stroke-opacity:1"
             id="path785" /></g><g
           id="g787"
           transform="translate(327.8066,489.0049)"><path
             d="m 0,0 c -17.636,9.869 -37.969,15.495 -59.614,15.495 -67.517,0 -122.25,-54.733 -122.25,-122.25 v -78.807 c 0,-6.596 -5.348,-11.943 -11.944,-11.943 -5.116,0 -9.663,3.258 -11.308,8.102 l -7.899,23.252 c -7.386,21.646 -34.923,31.315 -56.524,21.698 -21.601,-9.617 -29.862,-33.052 -22.698,-56.525 l 25.145,-75.442"
             style="fill:none;stroke:#000000;stroke-width:15;stroke-linecap:round;stroke-linejoin:round;stroke-miterlimit:10;stroke-dasharray:none;stroke-opacity:1"
             id="path789" /></g><g
           id="g791"
           transform="translate(390.4424,108.915)"><path
             d="m 0,0 v 273.335 c 0,33.256 -13.279,63.411 -34.825,85.451"
             style="fill:none;stroke:#000000;stroke-width:15;stroke-linecap:round;stroke-linejoin:round;stroke-miterlimit:10;stroke-dasharray:none;stroke-opacity:1"
             id="path793" /></g><g
           id="g795"
           transform="translate(51.4053,251.5)"><path
             d="M 0,0 65,65"
             style="fill:none;stroke:#000000;stroke-width:15;stroke-linecap:round;stroke-linejoin:round;stroke-miterlimit:10;stroke-dasharray:none;stroke-opacity:1"
             id="path797" /></g><g
           id="g799"
           transform="translate(84.4053,149.5)"><path
             d="M 0,0 289.041,293.473"
             style="fill:none;stroke:#000000;stroke-width:15;stroke-linecap:round;stroke-linejoin:round;stroke-miterlimit:10;stroke-dasharray:none;stroke-opacity:1"
             id="path801" /></g><g
           id="g803"
           transform="translate(239.4053,109.5)"><path
             d="M 0,0 -205,205"
             style="fill:none;stroke:#000000;stroke-width:15;stroke-linecap:round;stroke-linejoin:round;stroke-miterlimit:10;stroke-dasharray:none;stroke-opacity:1"
             id="path805" /></g><g
           id="g807"
           transform="translate(374.4053,109.5)"><path
             d="M 0,0 -228,216"
             style="fill:none;stroke:#000000;stroke-width:15;stroke-linecap:round;stroke-linejoin:round;stroke-miterlimit:10;stroke-dasharray:none;stroke-opacity:1"
             id="path809" /></g><g
           id="g811"
           transform="translate(389.4629,220.231)"><path
             d="M 0,0 -224.963,225.269"
             style="fill:none;stroke:#000000;stroke-width:15;stroke-linecap:round;stroke-linejoin:round;stroke-miterlimit:10;stroke-dasharray:none;stroke-opacity:1"
             id="path813" /></g><g
           id="g815"
           transform="translate(301.4053,109.5)"><path
             d="M 0,0 88.058,87.564"
             style="fill:none;stroke:#000000;stroke-width:15;stroke-linecap:round;stroke-linejoin:round;stroke-miterlimit:10;stroke-dasharray:none;stroke-opacity:1"
             id="path817" /></g><g
           id="g819"
           transform="translate(389.4629,351.4829)"><path
             d="M 0,0 -148.058,148.017"
             style="fill:none;stroke:#000000;stroke-width:15;stroke-linecap:round;stroke-linejoin:round;stroke-miterlimit:10;stroke-dasharray:none;stroke-opacity:1"
             id="path821" /></g><g
           id="g823"
           transform="translate(171.4053,109.5)"><path
             d="M 0,0 218.058,218.787"
             style="fill:none;stroke:#000000;stroke-width:15;stroke-linecap:round;stroke-linejoin:round;stroke-miterlimit:10;stroke-dasharray:none;stroke-opacity:1"
             id="path825" /></g><g
           id="g827"
           transform="translate(146.4053,353.5)"><path
             d="M 0,0 151,146"
             style="fill:none;stroke:#000000;stroke-width:15;stroke-linecap:round;stroke-linejoin:round;stroke-miterlimit:10;stroke-dasharray:none;stroke-opacity:1"
             id="path829" /></g><g
           id="g831"
           transform="translate(272.4043,7.5)"><path
             d="m 0,0 h 130.001 c 3.313,0 6,2.687 6,6 v 89 c 0,3.313 -2.687,6 -6,6 h -319 c -3.313,0 -6,-2.687 -6,-6 V 6 c 0,-3.313 2.687,-6 6,-6 h 153.936"
             style="fill:none;stroke:#000000;stroke-width:15;stroke-linecap:round;stroke-linejoin:round;stroke-miterlimit:10;stroke-dasharray:none;stroke-opacity:1"
             id="path833" /></g><g
           id="g835"
           transform="translate(79.4395,65)"><path
             d="m 0,0 c 20.432,0 20.432,-14 40.864,-14 20.43,0 20.43,14 40.861,14 20.431,0 20.431,-14 40.864,-14 20.432,0 20.432,14 40.866,14 20.434,0 20.434,-14 40.867,-14 20.433,0 20.433,14 40.866,14 20.436,0 20.436,-14 40.872,-14 20.436,0 20.436,14 40.872,14"
             style="fill:none;stroke:#000000;stroke-width:15;stroke-linecap:round;stroke-linejoin:round;stroke-miterlimit:10;stroke-dasharray:none;stroke-opacity:1"
             id="path837" /></g><g
           id="g839"
           transform="translate(242.9053,36.5)"><path
             d="M 0,0 V 0"
             style="fill:none;stroke:#000000;stroke-width:15;stroke-linecap:round;stroke-linejoin:round;stroke-miterlimit:10;stroke-dasharray:none;stroke-opacity:1"
             id="path841" /></g><g
           id="g843"
           transform="translate(161.7061,36.5)"><path
             d="M 0,0 V 0"
             style="fill:none;stroke:#000000;stroke-width:15;stroke-linecap:round;stroke-linejoin:round;stroke-miterlimit:10;stroke-dasharray:none;stroke-opacity:1"
             id="path845" /></g><g
           id="g847"
           transform="translate(324.1035,36.5)"><path
             d="M 0,0 V 0"
             style="fill:none;stroke:#000000;stroke-width:15;stroke-linecap:round;stroke-linejoin:round;stroke-miterlimit:10;stroke-dasharray:none;stroke-opacity:1"
             id="path849" /></g><g
           id="g851"
           transform="translate(201.7715,79.5)"><path
             d="M 0,0 V 0"
             style="fill:none;stroke:#000000;stroke-width:15;stroke-linecap:round;stroke-linejoin:round;stroke-miterlimit:10;stroke-dasharray:none;stroke-opacity:1"
             id="path853" /></g><g
           id="g855"
           transform="translate(284.0391,79.5)"><path
             d="M 0,0 V 0"
             style="fill:none;stroke:#000000;stroke-width:15;stroke-linecap:round;stroke-linejoin:round;stroke-miterlimit:10;stroke-dasharray:none;stroke-opacity:1"
             id="path857" /></g><g
           id="g859"
           transform="translate(120.4053,79.5)"><path
             d="M 0,0 V 0"
             style="fill:none;stroke:#000000;stroke-width:15;stroke-linecap:round;stroke-linejoin:round;stroke-miterlimit:10;stroke-dasharray:none;stroke-opacity:1"
             id="path861" /></g><g
           id="g863"
           transform="translate(365.4053,79.5)"><path
             d="M 0,0 V 0"
             style="fill:none;stroke:#000000;stroke-width:15;stroke-linecap:round;stroke-linejoin:round;stroke-miterlimit:10;stroke-dasharray:none;stroke-opacity:1"
             id="path865" /></g></g></g></g></svg>
