<svg xmlns="http://www.w3.org/2000/svg" version="1.1" xmlns:xlink="http://www.w3.org/1999/xlink" width="512" height="512" x="0" y="0" viewBox="0 0 64 64" style="enable-background:new 0 0 512 512" xml:space="preserve" class=""><g><path fill="#f7eced" d="M25.75 20.34c0 .22.02.44.07.65-.64-.04-1.23-.33-1.7-.77-.69-.65-1.12-1.65-1.12-2.77 0-.3.03-.62.1-.94.32-1.73 1.5-3.51 2.9-3.51.73 0 1.4.48 1.92 1.19a8.13 8.13 0 0 0-.42 2.49c0 .14 0 .27.02.41v.01c-1.01.39-1.77 1.97-1.77 3.24z" opacity="1" data-original="#f2afaf" class=""></path><path fill="#f7eced" d="M27.92 14.19c-.438-.598-.986-1.014-1.584-1.136.173 2.521-.697 4.564-2.945 6.126.188.397.428.756.728 1.04.47.44 1.06.73 1.7.77-.05-.21-.07-.43-.07-.65 0-1.27.76-2.85 1.77-3.24v-.01c-.02-.14-.02-.27-.02-.41.001-.8.151-1.67.421-2.49z" opacity="1" data-original="#e87570" class=""></path><path fill="#c4636d" d="M41 16c.95 0 1.76 1.09 2.09 2.26.1.36.16.73.16 1.08 0 1.47-1.01 2.66-2.25 2.66-.8 0-1.51-.5-1.91-1.25 1.12-.51 1.91-1.79 1.91-3.3 0-.46-.07-.95-.22-1.43.07-.01.15-.02.22-.02z" opacity="1" data-original="#db4d4d" class=""></path><path fill="#f7eced" d="M40.78 16.02c.15.48.22.97.22 1.43 0 1.51-.79 2.79-1.91 3.3-.34.16-.7.25-1.09.25-.93 0-1.77-.5-2.31-1.29.52-.86.81-1.9.81-3.03 0-.8-.15-1.67-.42-2.49C36.6 13.48 37.27 13 38 13c1.27 0 2.35 1.46 2.78 3.02zM23 17.45c0 1.12.43 2.12 1.12 2.77C23.82 21.26 22.98 22 22 22c-1.24 0-2.25-1.19-2.25-2.66 0-.33.05-.68.15-1.02.31-1.19 1.14-2.32 2.1-2.32.4 0 .77.2 1.1.51-.07.32-.1.64-.1.94z" opacity="1" data-original="#e87570" class=""></path><path fill="#c4636d" d="M23.243 18.815c-.523 1.249-1.418 2.168-2.928 2.27.412.556 1.011.915 1.685.915.98 0 1.82-.74 2.12-1.78-.39-.368-.684-.855-.877-1.405z" opacity="1" data-original="#db4d4d" class=""></path><path fill="#f7eced" d="M28 17c1.24 0 2.25 1.87 2.25 3.34 0 .4-.07.78-.21 1.12C29.68 22.37 28.9 23 28 23c-1.05 0-1.94-.85-2.18-2.01-.05-.21-.07-.43-.07-.65 0-1.27.76-2.85 1.77-3.24v-.01c.15-.06.31-.09.48-.09z" opacity="1" data-original="#e87570" class=""></path><path fill="#f7eced" d="M36.08 14.19c.27.82.42 1.69.42 2.49 0 1.13-.29 2.17-.81 3.03C34.89 21.09 33.54 22 32 22c-.7 0-1.37-.19-1.96-.54.14-.34.21-.72.21-1.12 0-1.47-1.01-3.34-2.25-3.34-.17 0-.33.03-.48.09-.02-.14-.02-.27-.02-.41 0-.8.15-1.67.42-2.49C28.63 11.98 30.19 10 32 10s3.37 1.98 4.08 4.19z" opacity="1" data-original="#e87570" class=""></path><path fill="#c4636d" d="M38.5 16.68c0 1.13-.29 2.17-.81 3.03-.23.39-.49.74-.8 1.03a2.89 2.89 0 0 1-1.2-1.03c.52-.86.81-1.9.81-3.03 0-.8-.15-1.67-.42-2.49.43-.58.96-1.01 1.54-1.14.18.37.33.75.46 1.14.27.82.42 1.69.42 2.49zM30.25 20.34c0 .4-.07.78-.21 1.12C29.68 22.37 28.9 23 28 23c-.72 0-1.36-.4-1.77-1.02.8-.09 1.48-.69 1.81-1.52.14-.34.21-.72.21-1.12 0-.75-.26-1.61-.69-2.26.14-.05.28-.08.44-.08 1.24 0 2.25 1.87 2.25 3.34z" opacity="1" data-original="#db4d4d" class=""></path><path fill="#c4636d" d="M36.5 16.68c0 1.13-.29 2.17-.81 3.03C34.89 21.09 33.54 22 32 22c-.7 0-1.37-.19-1.96-.54.06-.15.11-.31.14-.47 1.46-.06 2.74-.95 3.51-2.28.52-.86.81-1.9.81-3.03 0-.8-.15-1.67-.42-2.49-.4-1.23-1.06-2.39-1.88-3.18 1.73.14 3.2 2.05 3.88 4.18.27.82.42 1.69.42 2.49z" opacity="1" data-original="#db4d4d" class=""></path><path fill="#f7eced" d="M41 28.84v23.57c0 1.35-1.07 2.47-2.43 2.5h-.02c-2.11.06-4.3.09-6.55.09-17.12 0-31-1.79-31-4V34.92c0 .64.41 1.22 1.03 1.42.16.05.32.08.48.08.79 0 1.49-.65 1.49-1.5v-5.73c0-1.24 1.12-2.18 2.33-1.95.02 0 .03.01.04.01.94.18 1.63.99 1.63 1.94v3.73c0 .64.41 1.22 1.03 1.42.16.05.32.08.48.08.79 0 1.49-.65 1.49-1.5v8.52a1.992 1.992 0 0 0 2 2c1.07 0 2-.87 2-2V31.01c0-1.43 1.2-2.56 2.63-2.47.02 0 .03.01.05.01 1.3.08 2.32 1.16 2.32 2.46v4.43a1.992 1.992 0 0 0 2 2c1.07 0 2-.87 2-2v-4.03c0-1.39 1.14-2.51 2.53-2.47h.05c1.34.03 2.42 1.13 2.42 2.47v14.48c0 1.05.77 2.01 1.82 2.1.62.06 1.19-.17 1.59-.58.37-.36.59-.86.59-1.41v-7.11c0 1.05.77 2.01 1.82 2.1.62.06 1.19-.17 1.59-.58.37-.36.59-.86.59-1.41v-6.44c0-2.01 1.6-3.65 3.6-3.72h.04z" opacity="1" data-original="#f2afaf" class=""></path><path fill="#f7eced" d="M41 49.42v2.99c0 1.35-1.07 2.47-2.43 2.5h-.02c-2.11.06-4.3.09-6.55.09-17.12 0-31-1.79-31-4v-3c0 2.21 13.88 4 31 4 2.25 0 4.44-.03 6.55-.09h.02A2.491 2.491 0 0 0 41 49.42zM19.96 30.59c-.09-.02-.18-.03-.28-.04-.02 0-.03-.01-.05-.01A2.47 2.47 0 0 0 17 33.01v10.43a2.006 2.006 0 0 1-2.49 1.94A1.992 1.992 0 0 1 13 43.44c1.07 0 2-.87 2-2V31.01c0-1.43 1.2-2.56 2.63-2.47.02 0 .03.01.05.01 1.16.07 2.09.94 2.28 2.04zM28.96 30.98c-.12-.02-.25-.04-.38-.04h-.05A2.464 2.464 0 0 0 26 33.41v4.03a2.006 2.006 0 0 1-2.49 1.94A1.992 1.992 0 0 1 22 37.44c1.07 0 2-.87 2-2v-4.03c0-1.39 1.14-2.51 2.53-2.47h.05c1.19.03 2.18.9 2.38 2.04zM41 28.84v2.43c-1.19.62-2 1.86-2 3.29V41c0 .55-.22 1.05-.59 1.41-.4.41-.97.64-1.59.58-1.01-.09-1.77-.98-1.81-1.99.55 0 1.04-.22 1.4-.59.37-.36.59-.86.59-1.41v-6.44c0-2.01 1.6-3.65 3.6-3.72z" opacity="1" data-original="#e87570" class=""></path><path fill="#f7eced" d="M35 41v7c0 .55-.22 1.05-.59 1.41-.4.41-.97.64-1.59.58-1.01-.09-1.77-.98-1.81-1.99.55 0 1.04-.22 1.4-.59.37-.36.59-.86.59-1.41v-7.11c0 1.05.77 2.01 1.82 2.1.07.01.12.01.18.01zM8 29.19v.02c-1.07-.03-2 .85-2 1.98v5.73c0 .85-.7 1.5-1.49 1.5-.16 0-.32-.03-.48-.08-.62-.2-1.03-.78-1.03-1.42v-.59c.57-.2 1-.74 1-1.41v-5.73c0-1.24 1.12-2.18 2.33-1.95.02 0 .03.01.04.01.94.18 1.63.99 1.63 1.94z" opacity="1" data-original="#e87570" class=""></path><path fill="#f7eced" d="M57.97 49.97c.56.01 1.03-.44 1.03-1v-4c0-.54-.43-.98-.97-1L41 43.42v-3l16.97.55c.56.01 1.03-.44 1.03-1v-4c0-.54-.43-.98-.97-1L41 34.42v-3l16.97.55c.56.01 1.03-.44 1.03-1v-4c0-.54-.43-.98-.97-1l-18.44-.6L32 22l31 1v27.93a2 2 0 0 1-2.06 2L41 52.29v-2.87z" opacity="1" data-original="#f2afaf" class=""></path><path fill="#f7eced" d="M59 44.97v4c0 .56-.47 1.01-1.03 1L41 49.42v-6l17.03.55c.54.02.97.46.97 1z" opacity="1" data-original="#e87570" class=""></path><path fill="#f7eced" d="M63 23v27.93a2 2 0 0 1-2.06 2L41 52.29v-2.87l16.97.55c.56.01 1.03-.44 1.03-1v-1.04c1.09.01 2-.89 2-2V22.94z" opacity="1" data-original="#e87570" class=""></path><path fill="#f7eced" d="M59 35.97v4c0 .56-.47 1.01-1.03 1L41 40.42v-6l17.03.55c.54.02.97.46.97 1zM59 26.97v4c0 .56-.47 1.01-1.03 1L41 31.42V26l-.36-.16-1.05-.47 18.44.6c.54.02.97.46.97 1z" opacity="1" data-original="#e87570" class=""></path><path fill="#f7eced" d="m32 22 .74.02c-.05.08-.12.16-.18.23z" opacity="1" data-original="#f2afaf" class=""></path><path fill="#f7eced" d="m63 23-31-1c1.54 0 2.89-.91 3.69-2.29.54.79 1.38 1.29 2.31 1.29.39 0 .75-.09 1.09-.25.4.75 1.11 1.25 1.91 1.25 1.24 0 2.25-1.19 2.25-2.66 0-.35-.06-.72-.16-1.08C54.73 18.84 63 20.29 63 22z" opacity="1" data-original="#e87570" class=""></path><path fill="#a84f58" d="M44.476 20.901c.122-.331.206-.684.246-1.051 6.177.362 10.51.928 13.265 1.487z" opacity="1" data-original="#f49292" class=""></path><path fill="#f7eced" d="M40.64 25.84C37.9 25.94 35 26 32 26c-5.11 0-9.94-.16-14.19-.44C7.83 24.89 1 23.55 1 22c0-1.66 7.79-3.08 18.9-3.68-.1.34-.15.69-.15 1.02 0 1.47 1.01 2.66 2.25 2.66.98 0 1.82-.74 2.12-1.78.47.44 1.06.73 1.7.77C26.06 22.15 26.95 23 28 23c.9 0 1.68-.63 2.04-1.54.59.35 1.26.54 1.96.54l7.59 3.37z" opacity="1" data-original="#e87570" class=""></path><path fill="#a84f58" d="M32 24.5c-1.194 0-2.388-.009-3.573-.027.835-.105 1.604-.519 2.193-1.155.302.081.61.135.922.163a.705.705 0 0 1 .221.056l2.153.956c-.642.004-1.28.007-1.916.007zm-6.797-1.374c.417.517.069 1.279-.595 1.258a194.053 194.053 0 0 1-6.701-.322c-5.341-.358-8.999-.853-11.426-1.325-.815-.158-.815-1.328 0-1.487 2.387-.463 5.959-.944 11.134-1.291.353-.024.693.199.783.541.455 1.732 1.897 3 3.602 3a3.49 3.49 0 0 0 2.023-.65l1.093.163.087.113z" opacity="1" data-original="#f49292" class=""></path><path fill="#f7eced" d="M40.64 25.84C37.9 25.94 35 26 32 26c-5.11 0-9.94-.16-14.19-.44C7.83 24.89 1 23.55 1 22v12.92c0 .64.41 1.22 1.03 1.42.16.05.32.08.48.08.79 0 1.49-.65 1.49-1.5v-5.73c0-1.24 1.12-2.18 2.33-1.95.02 0 .03.01.04.01.94.18 1.63.99 1.63 1.94v3.73c0 .64.41 1.22 1.03 1.42.16.05.32.08.48.08.79 0 1.49-.65 1.49-1.5v8.52a1.992 1.992 0 0 0 2 2c1.07 0 2-.87 2-2V31.01c0-1.43 1.2-2.56 2.63-2.47.02 0 .03.01.05.01 1.3.08 2.32 1.16 2.32 2.46v4.43a1.992 1.992 0 0 0 2 2c1.07 0 2-.87 2-2v-4.03c0-1.39 1.14-2.51 2.53-2.47h.05c1.34.03 2.42 1.13 2.42 2.47v14.48c0 1.05.77 2.01 1.82 2.1.62.06 1.19-.17 1.59-.58.37-.36.59-.86.59-1.41v-7.11c0 1.05.77 2.01 1.82 2.1.62.06 1.19-.17 1.59-.58.37-.36.59-.86.59-1.41v-6.44c0-2.01 1.6-3.65 3.6-3.72h.4V26z" opacity="1" data-original="#e87570" class=""></path><path fill="#a84f58" d="M30.964 46.497c-.255-.021-.464-.305-.464-.607V31.41c0-2.142-1.744-3.923-3.887-3.97l-.155-.001A3.968 3.968 0 0 0 22.5 31.41v4.03a.507.507 0 0 1-.626.484.493.493 0 0 1-.374-.484v-4.43a3.975 3.975 0 0 0-3.468-3.933c4.322.277 9.142.423 13.968.423 2.467 0 4.984-.04 7.5-.12v.109a5.197 5.197 0 0 0-4 5.07V39a.449.449 0 0 1-.137.335.47.47 0 0 1-.35.165c-.305-.024-.514-.308-.514-.61a1.5 1.5 0 0 0-3 0V46a.449.449 0 0 1-.137.335.47.47 0 0 1-.35.165zM13 41.94a.493.493 0 0 1-.5-.5v-8.52a1.5 1.5 0 0 0-3 0v-3.73a3.487 3.487 0 0 0-2.297-3.262c2.501.423 5.814.806 10.202 1.106A3.98 3.98 0 0 0 13.5 31.01v10.43c0 .299-.259.5-.5.5zM2.5 24.812c.877.305 2.01.606 3.473.893h-.01c-1.909 0-3.463 1.563-3.463 3.485z" opacity="1" data-original="#f49292" class=""></path><path fill="#c4636d" d="M44 26v5.52l-3-.1V26l-.36-.16-1.05-.47 3.24.11.81.36zM44 34.52v6l-3-.1v-6zM58.94 47.93l-13.005-.42A2 2 0 0 1 44 45.511V43.52l-3-.1v6l3 .097 13.97.453c.56.01 1.03-.44 1.03-1v-1.04z" opacity="1" data-original="#db4d4d" class=""></path><path fill="#f7eced" d="m42.83 25.48-3.24-.11-7.03-3.12c.06-.07.13-.15.18-.23l2.5.08 7.35 3.27z" opacity="1" data-original="#e87570" class=""></path><path fill="#f7eced" d="m35.24 22.1-2.5-.08c.12-.17.22-.36.3-.56.59.35 1.26.54 1.96.54zM44 31.52v3l-3-.1v-3zM44 40.52v3l-3-.1v-3zM44 49.52v2.87l-3-.1v-2.87z" opacity="1" data-original="#e87570" class=""></path><g fill="#f2afaf"><path d="M12.989 20.397c-1.09.003-2.194.026-3.243.232-.705.139-1.758.495-1.167 1.076.327.322.845.346 1.369.235 1.028-.217 1.969-.259 3.041-.262.528-.001 1.035-.294 1.01-.641-.024-.345-.444-.642-1.01-.64zM12.761 40.674c-.643 0-.645 1 0 1 .643 0 .644-1 0-1zM30.859 39.956a.509.509 0 0 0-.5.5v2.152c0 .262.23.512.5.5.271-.012.5-.22.5-.5v-2.152c0-.261-.23-.512-.5-.5zM34.902 38.554c-.643 0-.645 1 0 1 .644 0 .645-1 0-1zM22.217 34.739c-.643 0-.645 1 0 1 .644 0 .645-1 0-1zM32 12.177c.005-.219-.129-.421-.452-.485-.259-.051-.531.062-.724.243-.601.568-1.156 1.988-.649 2.636.256.327.459-.082.573-.3.221-.422.487-.814.765-1.199.191-.264.479-.548.487-.895z" fill="#f7eced" opacity="1" data-original="#f2afaf" class=""></path></g><path fill="#f7eced" d="M26.075 15.034c.003-.15-.088-.288-.309-.331-.177-.035-.363.042-.494.166-.411.388-.789 1.357-.443 1.8.174.223.314-.056.391-.205.151-.288.333-.556.522-.819.131-.18.328-.375.333-.611zM27.598 18.924c-.643 0-.645 1 0 1 .643 0 .644-1 0-1z" opacity="1" data-original="#f2cccc" class=""></path><path fill="#771111" d="M43.805 17.297c-.454-1.065-1.24-1.991-2.28-2.231C40.857 13.383 39.548 12 38 12c-.534 0-1.054.171-1.541.476C35.481 10.518 33.889 9 32 9c-2.033 0-3.556 1.665-4.458 3.477C27.055 12.172 26.534 12 26 12c-1.544 0-2.85 1.376-3.519 3.053A2.28 2.28 0 0 0 22 15c-1.325 0-2.311 1.096-2.832 2.361C.013 18.457 0 21.118 0 22v29c0 1.317 1.206 2.692 9.952 3.82C15.848 55.581 23.678 56 32 56c2.244 0 4.458-.03 6.599-.091 1.563-.037 2.869-1.138 3.266-2.591l19.039.615a2.973 2.973 0 0 0 2.184-.843c.588-.57.912-1.336.912-2.155V22c0-.905-.014-3.637-20.195-4.703zm-1.857.743a3.2 3.2 0 0 1 .302 1.3c0 .899-.572 1.66-1.25 1.66a.956.956 0 0 1-.413-.109c.732-.713 1.229-1.712 1.361-2.851zM32 11c1.472 0 3.151 2.406 3.455 4.951a1 1 0 1 0 1.986-.236 9.599 9.599 0 0 0-.248-1.289c.275-.272.558-.426.807-.426.916 0 2 1.87 2 3.45 0 1.406-.897 2.55-2 2.55-.404 0-.789-.162-1.113-.444.096-.216.193-.432.267-.662a1 1 0 1 0-1.903-.615 4.683 4.683 0 0 1-.4.887l-.007.012C34.199 20.304 33.156 21 32 21c-.271 0-.539-.046-.798-.123.023-.177.048-.354.048-.538 0-1.638-1.013-3.855-2.696-4.266a7.454 7.454 0 0 1 .318-1.577C29.522 12.471 30.838 11 32 11zm10 15.448 16 .519v4l-16-.516zM22 23c1.003 0 1.913-.515 2.514-1.347.176.081.352.157.54.209C25.568 23.12 26.692 24 28 24c.978 0 1.845-.499 2.442-1.271.423.145.861.23 1.307.254l4.451 1.978c-1.41.025-2.814.039-4.2.039-16.844 0-27.834-1.699-29.801-2.994 1.056-.65 5.311-1.937 16.556-2.615C18.78 21.386 20.224 23 22 23zm6-1c-.678 0-1.25-.761-1.25-1.661 0-1.16.802-2.339 1.25-2.339s1.25 1.179 1.25 2.339c0 .9-.572 1.661-1.25 1.661zm-2-8c.251 0 .535.155.811.429a8.927 8.927 0 0 0-.304 2.097c-.888.667-1.476 1.866-1.677 2.989-.504-.464-.83-1.218-.83-2.065 0-1.58 1.084-3.45 2-3.45zm-4 3c.005 0 .013.006.019.006a5.533 5.533 0 0 0-.019.444 4.9 4.9 0 0 0 .964 2.935c-.232.379-.585.615-.964.615-.678 0-1.25-.761-1.25-1.66 0-1.16.802-2.34 1.25-2.34zM2 24.109c1.441.604 3.867 1.184 7.952 1.711C15.848 26.581 23.678 27 32 27c2.629 0 5.318-.051 8-.142v1.059c-2.28.353-4 2.283-4 4.648V39a.977.977 0 0 1-.307.713.99.99 0 0 1-.786.283c-.5-.043-.907-.54-.907-1.108V30a1 1 0 1 0-2 0v16a.977.977 0 0 1-.307.713.989.989 0 0 1-.786.283c-.5-.043-.907-.54-.907-1.108V31.41c0-1.871-1.523-3.429-3.446-3.474-.943.001-1.833.327-2.508.986A3.453 3.453 0 0 0 23 31.409v4.031a1.015 1.015 0 0 1-1.25.969.993.993 0 0 1-.75-.969v-4.426c0-1.826-1.43-3.349-3.305-3.47a3.486 3.486 0 0 0-2.598.93A3.492 3.492 0 0 0 14 31.011v10.43c0 .632-.62 1.126-1.25.969a.995.995 0 0 1-.75-.97v-12.5a1 1 0 1 0-2 0v3.979c0 .299-.254.5-.49.5a.647.647 0 0 1-.172-.031A.494.494 0 0 1 9 32.92v-3.726c0-1.429-1.026-2.66-2.48-2.936a2.935 2.935 0 0 0-2.438.628A2.98 2.98 0 0 0 3 29.187v5.733c0 .299-.254.5-.49.5a.647.647 0 0 1-.172-.031A.497.497 0 0 1 2 34.92zM40 38.5v13.912c0 .807-.649 1.479-1.479 1.498-2.101.06-4.295.09-6.521.09-17.519 0-28.712-1.838-30-3.147V37.345c1.628.339 3-.878 3-2.425v-5.733c0-.295.13-.571.356-.759a.976.976 0 0 1 .831-.196.987.987 0 0 1 .813.962v3.726c0 1.086.692 2.039 1.733 2.375.45.14.871.156 1.267.076v6.069c0 1.384.934 2.58 2.268 2.909A3.004 3.004 0 0 0 16 41.44V31.01c0-.413.165-.796.465-1.076.299-.28.681-.421 1.151-.391A1.48 1.48 0 0 1 19 31.015v4.426c0 1.384.934 2.58 2.268 2.909A3.004 3.004 0 0 0 25 35.441V31.41c0-.401.157-.776.443-1.056a1.405 1.405 0 0 1 1.114-.416A1.483 1.483 0 0 1 28 31.41v14.478c0 1.609 1.203 2.972 2.738 3.101a2.935 2.935 0 0 0 2.369-.862A2.937 2.937 0 0 0 34 46v-4.175c.234.086.481.142.738.163a2.95 2.95 0 0 0 2.369-.861A2.937 2.937 0 0 0 38 39v-6.435c0-1.264.851-2.316 2-2.627v5.366a1 1 0 0 0 1 1 .985.985 0 0 0 .97-.853l16.03.518v3.999l-16-.516V38.5a1 1 0 1 0-2 0zm2 5.952 16 .516v3.999l-16-.516zm19.695 7.2c-.196.19-.449.284-.728.282L42 51.322v-.87l15.935.514.068.002c.521 0 1.011-.198 1.388-.562.392-.382.609-.892.609-1.439v-3.998c0-1.086-.85-1.964-1.936-1.999L42 42.452v-1l15.935.514.068.002c.521 0 1.011-.198 1.388-.562.392-.382.609-.892.609-1.439v-3.998c0-1.086-.85-1.964-1.936-1.999L42 33.452v-1l15.935.514.068.002c.521 0 1.011-.198 1.388-.562.392-.382.609-.892.609-1.439v-3.999c0-1.085-.85-1.963-1.936-1.998l-18.253-.592-5.06-2.249a5.678 5.678 0 0 0 1.047-.882A3.688 3.688 0 0 0 38 22c.239 0 .47-.034.698-.08C39.302 22.599 40.13 23 41 23c1.792 0 3.25-1.642 3.25-3.66l-.001-.013c10.688.601 16.091 1.827 17.477 2.632l-17.205-.555-.033-.001a1 1 0 0 0-.031 1.999L62 23.968v26.967a.985.985 0 0 1-.305.717z" opacity="1" data-original="#771111" class=""></path></g></svg>