<svg xmlns="http://www.w3.org/2000/svg" version="1.1" xmlns:xlink="http://www.w3.org/1999/xlink" width="512" height="512" x="0" y="0" viewBox="0 0 254000 254000" style="enable-background:new 0 0 512 512" xml:space="preserve" fill-rule="evenodd" class=""><g><circle cx="127000" cy="127000" r="127000" fill="#c4636d" opacity="1" data-original="#ffbb33" class=""></circle><g fill="#fff"><path d="M122766 54149v72855c0 2316 1917 4233 4233 4233h1c2316 0 4233-1902 4233-4233V51018c0-2314-1869-4207-4184-4233s-4247 1829-4281 4146c0 43-2 133-2 176z" fill="#ffffff" opacity="1" data-original="#ffffff"></path><path d="M199854 122781h-72869c-2319 0-4233 1914-4233 4233v1c0 2319 1902 4233 4233 4233h76000c2311 0 4207-1869 4233-4184s-1829-4250-4146-4281c-40 0-133-2-176-2z" fill="#ffffff" opacity="1" data-original="#ffffff"></path></g></g></svg>