<svg xmlns="http://www.w3.org/2000/svg" version="1.1" xmlns:xlink="http://www.w3.org/1999/xlink" width="512" height="512" x="0" y="0" viewBox="0 0 300 300" style="enable-background:new 0 0 512 512" xml:space="preserve" class=""><g><circle cx="158" cy="132" r="92" fill="#f7eced" opacity="1" data-original="#edebdc" class=""></circle><g fill="#4c241d"><path d="M246 148c-6.617 0-12-5.383-12-12s5.383-12 12-12 12 5.383 12 12-5.383 12-12 12zm0-16c-2.205 0-4 1.793-4 4s1.795 4 4 4 4-1.793 4-4-1.795-4-4-4z" fill="#4c241d" opacity="1" data-original="#4c241d" class=""></path><circle cx="199.532" cy="49.51" r="4.276" fill="#4c241d" opacity="1" data-original="#4c241d" class=""></circle><path d="M253.043 63.812a3.988 3.988 0 0 1-2.828-1.172l-11.312-11.312a4 4 0 1 1 5.656-5.656l11.312 11.312a4 4 0 0 1-2.828 6.828z" fill="#4c241d" opacity="1" data-original="#4c241d" class=""></path><path d="M241.73 63.812a4 4 0 0 1-2.828-6.828l11.312-11.312a4 4 0 1 1 5.656 5.656L244.558 62.64a3.982 3.982 0 0 1-2.828 1.172z" fill="#4c241d" opacity="1" data-original="#4c241d" class=""></path></g><path fill="#f7eced" d="M207.966 232h-35.931C157.656 232 146 220.344 146 205.966V160h88v45.966C234 220.344 222.344 232 207.966 232z" opacity="1" data-original="#e2e2e2" class=""></path><path fill="#4c241d" d="M207.965 236h-35.93C155.475 236 142 222.527 142 205.965V160c0-2.211 1.791-4 4-4h88c2.209 0 4 1.789 4 4v45.965C238 222.527 224.525 236 207.965 236zM150 164v41.965c0 12.148 9.885 22.035 22.035 22.035h35.93c12.15 0 22.035-9.887 22.035-22.035V164z" opacity="1" data-original="#4c241d" class=""></path><path fill="#f7eced" d="M182 148h16v12h-16z" opacity="1" data-original="#e2e2e2" class=""></path><path fill="#4c241d" d="M198 164h-16c-2.209 0-4-1.789-4-4v-12c0-2.211 1.791-4 4-4h16c2.209 0 4 1.789 4 4v12c0 2.211-1.791 4-4 4zm-12-8h8v-4h-8z" opacity="1" data-original="#4c241d" class=""></path><path fill="#f7eced" d="M194.378 148h-8.756c-6.419 0-11.622-5.203-11.622-11.622V132h32v4.378c0 6.419-5.203 11.622-11.622 11.622z" opacity="1" data-original="#e2e2e2" class=""></path><path fill="#4c241d" d="M194.379 152h-8.758c-8.613 0-15.621-7.008-15.621-15.621V132c0-2.211 1.791-4 4-4h32c2.209 0 4 1.789 4 4v4.379c0 8.613-7.008 15.621-15.621 15.621zM178 136v.379c0 4.203 3.418 7.621 7.621 7.621h8.758c4.203 0 7.621-3.418 7.621-7.621V136z" opacity="1" data-original="#4c241d" class=""></path><path fill="#c4636d" d="M66 68h128.752C212.01 68 226 81.99 226 99.248V116H66z" opacity="1" data-original="#e66353" class=""></path><path fill="#4c241d" d="M226 120H66c-2.209 0-4-1.789-4-4V68c0-2.211 1.791-4 4-4h128.752C214.188 64 230 79.812 230 99.25V116c0 2.211-1.791 4-4 4zm-156-8h152V99.25C222 84.223 209.777 72 194.752 72H70z" opacity="1" data-original="#4c241d" class=""></path><path fill="#f7eced" d="M54 80h12v36H54z" opacity="1" data-original="#b5a19c" class=""></path><path fill="#4c241d" d="M66 120H54c-2.209 0-4-1.789-4-4V80c0-2.211 1.791-4 4-4h12c2.209 0 4 1.789 4 4v36c0 2.211-1.791 4-4 4zm-8-8h4V84h-4z" opacity="1" data-original="#4c241d" class=""></path><path fill="#f7eced" d="M214 116H78v36h36v-8.9c0-6.13 4.97-11.1 11.1-11.1H214z" opacity="1" data-original="#b5a19c" class=""></path><path fill="#4c241d" d="M114 156H78c-2.209 0-4-1.789-4-4v-36c0-2.211 1.791-4 4-4h136c2.209 0 4 1.789 4 4v16c0 2.211-1.791 4-4 4h-88.9c-3.914 0-7.1 3.188-7.1 7.102V152c0 2.211-1.791 4-4 4zm-32-8h28v-4.898c0-8.328 6.773-15.102 15.1-15.102H210v-8H82z" opacity="1" data-original="#4c241d" class=""></path><path fill="#c4636d" d="M222 244h-67.501C136.55 244 122 229.45 122 211.501V152H70v104h164c0-6.627-5.373-12-12-12z" opacity="1" data-original="#e66353" class=""></path><path fill="#4c241d" d="M234 260H70c-2.209 0-4-1.789-4-4V152c0-2.211 1.791-4 4-4h52c2.209 0 4 1.789 4 4v59.5c0 15.715 12.785 28.5 28.5 28.5H222c8.822 0 16 7.176 16 16 0 2.211-1.791 4-4 4zm-160-8h154.926a8 8 0 0 0-6.926-4h-67.5c-20.127 0-36.5-16.375-36.5-36.5V156H74z" opacity="1" data-original="#4c241d" class=""></path><path fill="#6b4f5b" d="M170 232h40v12h-40z" opacity="1" data-original="#6b4f5b"></path><path fill="#4c241d" d="M210 248h-40c-2.209 0-4-1.789-4-4v-12c0-2.211 1.791-4 4-4h40c2.209 0 4 1.789 4 4v12c0 2.211-1.791 4-4 4zm-36-8h32v-4h-32z" opacity="1" data-original="#4c241d" class=""></path><circle cx="94" cy="92" r="8" fill="#a9ba5a" opacity="1" data-original="#a9ba5a" class=""></circle><path fill="#4c241d" d="M94 104c-6.617 0-12-5.383-12-12s5.383-12 12-12 12 5.383 12 12-5.383 12-12 12zm0-16c-2.205 0-4 1.793-4 4s1.795 4 4 4 4-1.793 4-4-1.795-4-4-4zM106 168H86c-2.209 0-4-1.789-4-4s1.791-4 4-4h20c2.209 0 4 1.789 4 4s-1.791 4-4 4zM106 180H86c-2.209 0-4-1.789-4-4s1.791-4 4-4h20c2.209 0 4 1.789 4 4s-1.791 4-4 4zM106 192H86c-2.209 0-4-1.789-4-4s1.791-4 4-4h20c2.209 0 4 1.789 4 4s-1.791 4-4 4zM258 260H42c-2.209 0-4-1.789-4-4s1.791-4 4-4h216c2.209 0 4 1.789 4 4s-1.791 4-4 4z" opacity="1" data-original="#4c241d" class=""></path><path fill="#ffffff" d="M158 196c-2.209 0-4-1.789-4-4v-20c0-2.211 1.791-4 4-4s4 1.789 4 4v20c0 2.211-1.791 4-4 4z" opacity="1" data-original="#ffffff" class=""></path></g></svg>