<svg xmlns="http://www.w3.org/2000/svg" version="1.1" xmlns:xlink="http://www.w3.org/1999/xlink" width="512" height="512" x="0" y="0" viewBox="0 0 64 64" style="enable-background:new 0 0 512 512" xml:space="preserve" class=""><g><circle cx="32" cy="32" r="32" fill="#c4636d" opacity="1" data-original="#ee983c" class=""></circle><g fill="#fff"><path d="M44.21 16.13c-.96 0-1.89.15-2.77.45-2.32-2.85-5.73-4.47-9.42-4.47-3.7 0-7.11 1.62-9.42 4.47a8.66 8.66 0 0 0-2.78-.45c-4.85 0-8.8 3.95-8.8 8.8 0 4.44 3.32 8.16 7.66 8.72v13.74h7.25v-4.65c0-.35.28-.64.64-.64.35 0 .64.29.64.64v4.65h4.17v-6.2c0-.35.29-.64.64-.64.36 0 .64.29.64.64v6.2h4.18v-4.65c0-.35.29-.64.64-.64s.64.29.64.64v4.65h6.75V33.71c4.53-.33 8.13-4.14 8.13-8.78 0-4.85-3.95-8.8-8.79-8.8zm2.89 9.4c-.04.01-.08.01-.11.01-.3 0-.57-.21-.62-.52a4.687 4.687 0 0 0-1.97-3.04 4.659 4.659 0 0 0-3.53-.76c-.34.07-.68-.17-.74-.51s.17-.68.52-.74c1.57-.29 3.17.05 4.49.96 1.32.92 2.2 2.28 2.49 3.86.04.35-.19.68-.53.74zM19.93 48.66h-1.27v2.59c0 .35.29.64.64.64h24.91c.35 0 .64-.29.64-.64v-2.59h-1.27z" fill="#ffffff" opacity="1" data-original="#ffffff" class=""></path></g></g></svg>