<svg xmlns="http://www.w3.org/2000/svg" version="1.1" xmlns:xlink="http://www.w3.org/1999/xlink" width="512" height="512" x="0" y="0" viewBox="0 0 64 64" style="enable-background:new 0 0 512 512" xml:space="preserve"><g><g data-name="Layer 32"><path d="M59.966 21.584a4.969 4.969 0 0 0 1.028-8.566c0-1.355-.819-2.438-2.672-3.607A2.409 2.409 0 0 0 56.973 9a3.984 3.984 0 0 0-1.869.5 4.059 4.059 0 0 0-.593-.6 3.967 3.967 0 0 0-1.875-5.537 3.981 3.981 0 0 0-6.468-1.183 4.02 4.02 0 0 0-3.966.964 5.024 5.024 0 0 0-3.881.635 4.974 4.974 0 0 0-1.55 6.872 3.951 3.951 0 0 0-.508 3.762 3.974 3.974 0 0 0-.856 6.621c-.05.115-.081.237-.122.355a14.067 14.067 0 0 0-2.371-.351 5.809 5.809 0 0 0-3.15-4.275l-1.317-.659-.894 1.79 1.317.658a3.826 3.826 0 0 1 2.006 2.494 12.842 12.842 0 0 0-8.149 3.614c-.338-1.13-.7-2.255-1.1-3.357a8.083 8.083 0 0 0-6.41-5.213L16 2.056A1 1 0 0 0 15 1H9a1 1 0 0 0-1 1.071l.491 6.865-1.659-2.491a1 1 0 0 0-1.539-.152l-4 4a1 1 0 0 0 0 1.414l6.872 6.872A8.02 8.02 0 0 0 6 24.057 14.772 14.772 0 0 0 7.282 30.1L9.461 35H2a1 1 0 0 0-1 1v10a1 1 0 0 0 1 1h1v4H2a1 1 0 0 0-1 1v10a1 1 0 0 0 1 1h60a1 1 0 0 0 1-1V52a1 1 0 0 0-1-1h-1v-4h1a1 1 0 0 0 1-1V36a1 1 0 0 0-1-1H49.738a10.254 10.254 0 0 0 1.968-3.03C55.235 31.666 58 29.1 58 26a5.161 5.161 0 0 0-.089-.95 4.947 4.947 0 0 0 2.055-3.466ZM37.7 20.456a1 1 0 0 0-.541-.651 1.986 1.986 0 0 1 .714-3.787 1 1 0 0 0 .664-1.677 1.959 1.959 0 0 1 .186-2.862 1 1 0 0 0 .087-1.456 2.959 2.959 0 0 1-.731-2.723 2.921 2.921 0 0 1 1.3-1.824 3 3 0 0 1 2.775-.25 1 1 0 0 0 1.2-.358 1.981 1.981 0 0 1 2.622-.6 1 1 0 0 0 1.34-.335 1.983 1.983 0 0 1 3.587.494 1 1 0 0 0 .67.67 1.972 1.972 0 0 1 .783 3.354 1 1 0 0 0 .325 1.674A2 2 0 0 1 54 12a1.973 1.973 0 0 1-.939 1.681 1 1 0 0 0-.19 1.544 3.967 3.967 0 0 1-.473 5.957 1 1 0 0 0-.4.8A2 2 0 0 1 50 24a1 1 0 0 0-.919.606 19.73 19.73 0 0 1-5.11 7.054c.017-.219.029-.439.029-.66a8.743 8.743 0 0 0-1.8-5.237l.1-.088a14.207 14.207 0 0 0 4.289-7.231 9.664 9.664 0 0 0 5.242-3.889l-1.664-1.11a7.676 7.676 0 0 1-3.224 2.741c.026-.353.056-.706.056-1.063a34.552 34.552 0 0 0-1.03-8.366l-1.94.486c.237.95.417 1.913.567 2.88A10.063 10.063 0 0 0 40 9v2a8.051 8.051 0 0 1 4.8 1.6l.1.072c.062.816.1 1.633.1 2.451a12.165 12.165 0 0 1-.611 3.8 14.606 14.606 0 0 0-3.834-3.757l-1.11 1.664a12.594 12.594 0 0 1 3.963 4.3 12.191 12.191 0 0 1-2.445 3.052l-.1.092a12.118 12.118 0 0 0-3.681-2.286 3.016 3.016 0 0 1 .366-.706 1 1 0 0 0 .152-.826ZM23.372 35A6.778 6.778 0 0 1 22 31a7 7 0 0 1 2.073-4.858A6.833 6.833 0 0 0 24 27a1 1 0 0 0 1.2.98l4.344-.868 1.628 2.443A1 1 0 0 0 31.9 30a.831.831 0 0 0 .1 0 1 1 0 0 0 .707-.293l2.49-2.49 3.356 1.683A1 1 0 0 0 40 28v-.757c0-.363-.02-.723-.055-1.081A6.992 6.992 0 0 1 42 31a6.782 6.782 0 0 1-1.372 4Zm14.141-10.668a9.212 9.212 0 0 1 .445 2.029l-2.511-1.256a1 1 0 0 0-1.154.188l-2.138 2.137-1.323-1.985a1 1 0 0 0-1.032-.425l-3.64.728a4.927 4.927 0 0 1 .808-1.652 12.078 12.078 0 0 1 10.541.236ZM10.074 3h3.869l-.724 13.026-2.481-3.721ZM5.845 8.57l5.317 7.977a8.074 8.074 0 0 0-1.46.741L3.414 11ZM11.2 33.981l4.046-1.011-.486-1.94-4.385 1.1-.875-1.973 4.746-1.187-.486-1.94-5.03 1.257a12.763 12.763 0 0 1-.53-2.056l5.043-1.261-.486-1.94-4.749 1.187c0-.054-.008-.106-.008-.16a6.057 6.057 0 0 1 11.75-2.07 59.739 59.739 0 0 1 1.469 4.651A8.44 8.44 0 0 0 21 35h-9.35ZM61 61H3v-8h58Zm-2-10H5v-4h54Zm2-6H3v-8h58Zm-3-24a2.977 2.977 0 0 1-1.689 2.683 1 1 0 0 0-.5 1.232A3.24 3.24 0 0 1 56 26c0 2.206-2.243 4-5 4a1 1 0 0 0-.949.684 8.242 8.242 0 0 1-3.238 4.238L46.7 35H43c.022-.042.045-.083.066-.125a21.706 21.706 0 0 0 7.612-8.931 4 4 0 0 0 3.3-3.467 5.962 5.962 0 0 0 1.007-7.816 3.75 3.75 0 0 0 .943-3.339A1.983 1.983 0 0 1 56.986 11a.657.657 0 0 1 .269.1c1.894 1.2 1.79 1.779 1.707 2.248a1 1 0 0 0 .495 1.046 2.976 2.976 0 0 1-.718 5.5 1 1 0 0 0-.752 1A.347.347 0 0 0 58 21Z" fill="#a84f58" opacity="1" data-original="#000000"></path><path d="M7 40h2v2H7zM7 56h2v2H7zM55 40h2v2h-2zM55 56h2v2h-2z" fill="#a84f58" opacity="1" data-original="#000000"></path></g></g></svg>