<svg xmlns="http://www.w3.org/2000/svg" version="1.1" xmlns:xlink="http://www.w3.org/1999/xlink" width="512" height="512" x="0" y="0" viewBox="0 0 24 24" style="enable-background:new 0 0 512 512" xml:space="preserve" class=""><g><g data-name="Layer 2"><path fill="#a84f58" d="M19.36 9V6.64a2 2 0 0 0-2-2h-2.31L13.41 3a2 2 0 0 0-2.82 0L9 4.64H6.64a2 2 0 0 0-2 2V9L3 10.59a2 2 0 0 0 0 2.82l1.64 1.64v2.31a2 2 0 0 0 2 2H9L10.59 21a2 2 0 0 0 2.82 0l1.64-1.64h2.31a2 2 0 0 0 2-2v-2.31L21 13.41a2 2 0 0 0 0-2.82z" opacity="1" data-original="#2196f3"></path><path fill="#ffffff" d="M11.25 14.5a1 1 0 0 1-.71-.29L9 12.71a1 1 0 0 1 1.42-1.42l.79.8 2.29-2.3a1 1 0 0 1 1.5 1.42l-3 3a1 1 0 0 1-.75.29z" opacity="1" data-original="#ffffff"></path></g></g></svg>