<svg xmlns="http://www.w3.org/2000/svg" version="1.1" xmlns:xlink="http://www.w3.org/1999/xlink" width="512" height="512" x="0" y="0" viewBox="0 0 128 128" style="enable-background:new 0 0 512 512" xml:space="preserve" class=""><g><path d="M95 17.25H33A8.762 8.762 0 0 0 24.247 26v76.927a7.815 7.815 0 0 0 11.336 6.973l26.473-13.358a4.334 4.334 0 0 1 3.888 0L92.417 109.9a7.815 7.815 0 0 0 11.336-6.976V26A8.762 8.762 0 0 0 95 17.25zm5.252 85.678a4.315 4.315 0 0 1-6.26 3.851L67.521 93.417a7.85 7.85 0 0 0-7.042 0l-26.472 13.362a4.315 4.315 0 0 1-6.26-3.851V26A5.258 5.258 0 0 1 33 20.75h62a5.258 5.258 0 0 1 5.253 5.25z" fill="#c4636d" opacity="1" data-original="#000000" class=""></path><path d="m81.989 48.8-10.454-1.519-4.676-9.473a3.188 3.188 0 0 0-5.718 0l-4.676 9.473L46.011 48.8a3.189 3.189 0 0 0-1.767 5.439l7.565 7.374-1.786 10.41a3.184 3.184 0 0 0 4.626 3.362L64 70.469l9.351 4.916a3.188 3.188 0 0 0 4.626-3.361l-1.786-10.412 7.565-7.374a3.189 3.189 0 0 0-1.767-5.438zm-8.358 10.42a3.187 3.187 0 0 0-.917 2.822l1.707 9.952-8.939-4.7a3.191 3.191 0 0 0-2.966 0l-8.937 4.7 1.707-9.952a3.187 3.187 0 0 0-.917-2.822l-7.23-7.048 9.993-1.452a3.183 3.183 0 0 0 2.4-1.744L64 39.922l4.468 9.052a3.188 3.188 0 0 0 2.4 1.747l9.992 1.451z" fill="#c4636d" opacity="1" data-original="#000000" class=""></path></g></svg>