<svg xmlns="http://www.w3.org/2000/svg" version="1.1" xmlns:xlink="http://www.w3.org/1999/xlink" width="512" height="512" x="0" y="0" viewBox="0 0 60 60" style="enable-background:new 0 0 512 512" xml:space="preserve" class=""><g><path fill="#f7eced" d="M26.625 55.47a.5.5 0 0 1-.276-.917l.046-.031-1.525.88a.5.5 0 0 1-.549-.834l5.14-3.823-8.068 4.655a.5.5 0 0 1-.551-.832l5.381-4.06-8.475 4.892a.5.5 0 0 1-.545-.837l4.724-3.448-7.422 4.285a.5.5 0 0 1-.555-.829l5.65-4.345-8.607 4.974a.5.5 0 0 1-.553-.831l5.2-3.953-6.34 3.659a.5.5 0 0 1-.54-.84l2.228-1.59-2.378 1.371a.5.5 0 0 1-.548-.834l1.809-1.34-1.57.906a.5.5 0 0 1-.554-.83l.744-.567-.211.121a.5.5 0 0 1-.646-.738l1.547-2.017-.9.519a.5.5 0 0 1-.731-.568l.255-.9a.5.5 0 0 1-.024-.879l.5-.289a.494.494 0 0 1 .557.038.5.5 0 0 1 .175.53l-.167.591 2.01-1.159a.5.5 0 0 1 .647.737l-1.548 2.014 4.777-2.758a.5.5 0 0 1 .554.83l-.743.567 2.424-1.4a.5.5 0 0 1 .548.834l-1.808 1.339 3.768-2.175a.5.5 0 0 1 .54.84l-2.227 1.589L22 45.587a.5.5 0 0 1 .553.831l-5.207 3.957 8.3-4.79a.5.5 0 0 1 .554.829l-5.647 4.345 8.967-5.177a.5.5 0 0 1 .545.837l-4.724 3.447 7.427-4.287a.5.5 0 0 1 .55.832l-5.382 4.063 8.481-4.9a.5.5 0 0 1 .549.834l-5.138 3.822 8.072-4.656a.5.5 0 0 1 .526.85l-.054.035 1.535-.886a.5.5 0 0 1 .556.828l-5.7 4.4 9.06-5.231a.5.5 0 0 1 .533.846L44.04 48l4.2-2.428a.5.5 0 0 1 .537.842l-3.446 2.414 4.384-2.53a.5.5 0 0 1 .546.836l-3.918 2.88 3.372-1.947a.5.5 0 0 1 .55.833L48.3 50.375l1.422-.82a.494.494 0 0 1 .649.132.5.5 0 0 1-.052.66l-2.236 2.165 1.639-.946a.5.5 0 0 1 .623.766l-.6.672a.5.5 0 0 1 .412.905l-2.59 1.491a.5.5 0 0 1-.623-.765l.578-.648-2.448 1.413a.5.5 0 0 1-.6-.792l2.236-2.166-5.121 2.958a.5.5 0 0 1-.55-.833l1.97-1.476-4 2.309a.5.5 0 0 1-.546-.836l3.919-2.88-6.441 3.716a.5.5 0 0 1-.537-.841l3.447-2.415L33.21 55.4a.5.5 0 0 1-.532-.845l2.311-1.581-4.2 2.426a.5.5 0 0 1-.556-.828l5.7-4.4-9.058 5.228a.5.5 0 0 1-.25.07z" opacity="1" data-original="#def0f2" class=""></path><path fill="#a84f58" d="M11.306 47.538a.5.5 0 0 1-.25-.933l1.459-.842a.5.5 0 0 1 .5.865l-1.459.843a.494.494 0 0 1-.25.067z" opacity="1" data-original="#932743" class=""></path><path fill="#a84f58" d="M8.03 50.327a.5.5 0 0 1-.339-.867l1.652-1.525-1.063.613a.5.5 0 0 1-.586-.8l1.468-1.328-.882.509a.5.5 0 0 1-.6-.784l2.332-2.358-1.727 1a.5.5 0 0 1-.569-.817l.453-.376a.5.5 0 0 1-.538-.188.5.5 0 0 1 .07-.666l1.382-1.24-.8.46a.5.5 0 0 1-.592-.8l1.758-1.642-1.166.673a.5.5 0 0 1-.593-.8l1.812-1.7-1.219.7a.5.5 0 0 1-.567-.82l.4-.327a.49.49 0 0 1-.478-.189.5.5 0 0 1 .045-.658L9.9 34.182l-1.62.935a.5.5 0 0 1-.582-.806L8.98 33.17l-.7.4a.5.5 0 0 1-.586-.8l1.469-1.33-.883.51a.5.5 0 0 1-.6-.791l2.087-2.036-1.489.859a.5.5 0 0 1-.6-.792l2.01-1.94-1.413.815a.5.5 0 0 1-.6-.789l2.16-2.13-1.56.9a.5.5 0 0 1-.593-.8L9.5 23.54l-1.223.706a.5.5 0 0 1-.608-.781l2.416-2.478L8.28 22.03a.5.5 0 0 1-.6-.784l2.339-2.37-1.734 1a.5.5 0 0 1-.569-.817l.45-.373a.5.5 0 0 1-.474-.846l1.858-1.759-1.265.73a.5.5 0 0 1-.61-.78l2.479-2.572-1.874 1.08a.5.5 0 0 1-.6-.785l2.3-2.314-1.694.978a.5.5 0 0 1-.593-.8l1.832-1.733-1.245.715a.5.5 0 0 1-.592-.8l1.766-1.648-1.174.678a.5.5 0 0 1-.6-.788l2.163-2.136-1.563.9a.5.5 0 0 1-.594-.795L9.41 4.374l-1.11.639a.5.5 0 0 1-.615-.775l1.2-1.276a.5.5 0 0 1-.185-.929L11.073.662a.5.5 0 0 1 .614.775l-.956 1.02L12.555 1.4a.5.5 0 0 1 .594.8l-1.724 1.64 1.3-.748a.5.5 0 0 1 .6.788l-2.167 2.135 1.563-.9a.5.5 0 0 1 .591.8l-1.765 1.648 1.174-.677a.5.5 0 0 1 .593.8l-1.838 1.732 1.246-.718a.5.5 0 0 1 .6.785l-2.3 2.316 1.7-.979a.5.5 0 0 1 .61.78l-2.479 2.571 1.87-1.079a.5.5 0 0 1 .593.8l-1.858 1.758 1.265-.729a.5.5 0 0 1 .569.817l-.45.373a.5.5 0 0 1 .486.834l-2.34 2.371 1.736-1a.5.5 0 0 1 .608.781l-2.415 2.476 1.807-1.043a.5.5 0 0 1 .592.8L11.5 23.033l1.223-.706a.5.5 0 0 1 .6.789l-2.16 2.129 1.561-.9a.5.5 0 0 1 .6.792l-2.011 1.942 1.414-.816a.5.5 0 0 1 .6.791l-2.087 2.035 1.49-.86a.5.5 0 0 1 .586.8l-1.469 1.331.883-.509a.5.5 0 0 1 .582.806L12.025 31.8l.7-.4a.5.5 0 0 1 .6.788L11.1 34.4l1.623-.936a.5.5 0 0 1 .567.819l-.4.327a.494.494 0 0 1 .482.2.5.5 0 0 1-.059.662l-1.811 1.7 1.219-.7a.5.5 0 0 1 .591.8l-1.75 1.628 1.166-.673a.5.5 0 0 1 .584.8l-1.382 1.24.8-.46a.5.5 0 0 1 .569.818l-.453.376a.5.5 0 0 1 .489.833L11 44.2l1.727-1a.5.5 0 0 1 .585.8l-1.467 1.328.882-.509a.5.5 0 0 1 .588.8l-4.688 4.33a.5.5 0 0 1-.2.221l-.146.084a.489.489 0 0 1-.251.073z" opacity="1" data-original="#932743" class=""></path><path fill="#c4636d" d="M13.391 47.5a.5.5 0 0 1-.266-.924l15.458-9.7-16.3 9.412a.5.5 0 0 1-.509-.859l2.463-1.5-1.957 1.132a.5.5 0 0 1-.51-.86l5.574-3.401-5.064 2.919a.5.5 0 0 1-.517-.855l19.584-12.418L12.28 41.454a.5.5 0 0 1-.517-.855L30.824 28.54 12.28 39.246a.5.5 0 0 1-.514-.857l14.787-9.216-14.273 8.24a.5.5 0 0 1-.512-.858l10.721-6.615-10.209 5.9a.5.5 0 0 1-.515-.856l16.944-10.638L12.28 33.83a.5.5 0 0 1-.515-.856l16.156-10.113-15.641 9.031a.5.5 0 0 1-.509-.86L14 29.68l-1.715.989a.5.5 0 0 1-.516-.856l18.28-11.531L12.28 28.54a.5.5 0 0 1-.514-.857l14.225-8.852-13.711 7.916a.5.5 0 0 1-.513-.857l12.686-7.871-12.173 7.028a.5.5 0 0 1-.51-.859l5.646-3.459-5.136 2.964a.5.5 0 0 1-.514-.856l10.924-6.818-10.41 6.009a.5.5 0 0 1-.522-.852L27.305 11.09 12.28 19.764a.5.5 0 0 1-.524-.851l13.264-8.7-12.74 7.35a.5.5 0 0 1-.528-.847l11.634-7.8-11.106 6.41a.5.5 0 0 1-.521-.852l4.655-3.007-4.134 2.386a.5.5 0 0 1-.522-.853l3.023-1.963-2.5 1.443a.5.5 0 0 1-.542-.837L19.012 6.4l-6.732 3.883a.5.5 0 0 1-.54-.84L15.586 6.7 12.28 8.612a.5.5 0 0 1-.566-.819l3.971-3.247-3.405 1.965a.5.5 0 0 1-.574-.814l1.763-1.5-1.189.683a.5.5 0 0 1-.627-.762l1.007-1.152-.38.219a.5.5 0 0 1-.73-.573l.248-.851a.5.5 0 0 1-.018-.876l.5-.285a.5.5 0 0 1 .731.573l-.154.527L14.764.6a.5.5 0 0 1 .627.761l-1.006 1.15L17.7.6a.5.5 0 0 1 .574.813l-1.762 1.5L20.524.6a.5.5 0 0 1 .567.819L17.12 4.664 24.164.6a.5.5 0 0 1 .54.84l-3.846 2.737L27.059.6a.5.5 0 0 1 .542.838l-7.273 5.244L30.866.6a.5.5 0 0 1 .523.851L28.377 3.4 33.239.6a.5.5 0 0 1 .522.852L29.1 4.463 35.793.6a.5.5 0 0 1 .528.847l-11.633 7.8L39.668.6a.5.5 0 0 1 .524.85l-13.258 8.7L43.478.6a.5.5 0 0 1 .522.85L28.448 11.54 47.4.6a.5.5 0 0 1 .515.856L36.994 8.271 50.188.653a.5.5 0 0 1 .511.86L45.071 4.96l6.231-3.6a.5.5 0 0 1 .513.858l-12.688 7.875L51.72 2.822a.5.5 0 0 1 .514.858l-14.239 8.86L51.72 4.616a.5.5 0 0 1 .516.856L33.962 17 51.72 6.744a.5.5 0 0 1 .509.86l-2.224 1.352 1.715-.989a.5.5 0 0 1 .515.856L36.079 18.936 51.72 9.9a.5.5 0 0 1 .515.857L35.291 21.4l16.429-9.49a.5.5 0 0 1 .512.859L41.51 19.383l10.21-5.895a.5.5 0 0 1 .514.858l-14.787 9.216 14.273-8.241a.5.5 0 0 1 .517.856L33.176 28.235 51.72 17.529a.5.5 0 0 1 .517.855L32.653 30.8 51.72 19.794a.5.5 0 0 1 .51.859l-5.574 3.406 5.064-2.923a.5.5 0 0 1 .509.859l-2.463 1.5 1.954-1.128a.5.5 0 0 1 .515.857l-15.466 9.7 14.951-8.631a.5.5 0 0 1 .512.858l-7.144 4.41 6.632-3.829a.5.5 0 0 1 .522.853L36.385 36.864l15.335-8.853a.5.5 0 0 1 .525.849l-14.07 9.28 13.545-7.821a.5.5 0 0 1 .514.858l-.581.361.067-.038a.5.5 0 0 1 .515.856l-1.047.658.532-.307a.5.5 0 0 1 .531.846l-9.112 6.2 8.581-4.954a.5.5 0 0 1 .522.852L50.1 37.035l1.62-.935a.5.5 0 0 1 .534.844l-4.839 3.334L51.72 37.8a.5.5 0 0 1 .538.842l-3.3 2.324 2.767-1.6a.5.5 0 0 1 .546.835l-2.474 1.821 1.928-1.114a.5.5 0 0 1 .582.807l-2.663 2.364 2.081-1.2a.5.5 0 0 1 .593.8l-.778.736.185-.106a.5.5 0 0 1 .5.865L48.348 47.4a.5.5 0 0 1-.594-.8l.779-.737-2.658 1.535a.5.5 0 0 1-.582-.806l2.665-2.367-5.5 3.176a.5.5 0 0 1-.546-.835l2.474-1.819-4.6 2.656a.5.5 0 0 1-.538-.842l3.309-2.327-5.493 3.171a.5.5 0 0 1-.535-.845l4.84-3.334-7.242 4.181a.5.5 0 0 1-.522-.852l2.129-1.383-3.876 2.237a.5.5 0 0 1-.531-.846l9.113-6.2-12.2 7.045a.5.5 0 0 1-.515-.857l1.045-.655-2.623 1.514a.5.5 0 0 1-.515-.858l.6-.37-2.129 1.229a.5.5 0 0 1-.526-.85L37.634 37.3 20.09 47.427a.5.5 0 0 1-.523-.853l15.862-10.281L16.138 47.43a.5.5 0 0 1-.513-.859l7.149-4.413-9.133 5.274a.494.494 0 0 1-.25.068z" opacity="1" data-original="#d1314b" class=""></path><path fill="#a84f58" d="M25.937 59.435a.5.5 0 0 1-.466-.679L26 57.372l-1.628.94a.5.5 0 0 1-.609-.781l.37-.383-.866.5a.5.5 0 0 1-.591-.8l.741-.692-5.554 3.206a.5.5 0 0 1-.55-.833L20 56.519l-2.72 1.569a.5.5 0 0 1-.537-.842l.424-.3a.49.49 0 0 1-.555-.207.5.5 0 0 1 .121-.676l.39-.287a.49.49 0 0 1-.473-.167.5.5 0 0 1-.008-.638L18.4 52.8l-1.119.645a.5.5 0 0 1-.734-.554l.282-1.119a.484.484 0 0 1-.23-.207.5.5 0 0 1 .182-.682l.5-.29a.5.5 0 0 1 .735.554l-.212.841 2.433-1.4a.5.5 0 0 1 .639.747L19.119 53.5l5.071-2.928a.5.5 0 0 1 .547.835l-.182.135 1.691-.977a.5.5 0 0 1 .537.842l-.287.2.224-.129a.5.5 0 0 1 .55.833l-2.688 2.015L26.72 53.1a.5.5 0 0 1 .591.8l-.74.689.149-.085a.5.5 0 0 1 .609.78l-.446.462a.508.508 0 0 1 .411.112.5.5 0 0 1 .143.559l-.552 1.444a.5.5 0 0 1 .309.929l-1.007.581a.5.5 0 0 1-.25.064z" opacity="1" data-original="#932743" class=""></path><path fill="#f7eced" d="M26.369 37.47a.5.5 0 0 1-.311-.892l4.754-3.785-6.267 3.618a.5.5 0 0 1-.545-.837l1.976-1.44-1.7.978a.5.5 0 0 1-.556-.828l1.51-1.171-.954.55a.5.5 0 0 1-.643-.741l1.7-2.172-1.061.612a.5.5 0 0 1-.733-.56l.271-1.031a.5.5 0 0 1-.038-.885l.5-.289a.5.5 0 0 1 .734.56l-.2.739 2.262-1.3a.5.5 0 0 1 .644.741l-1.7 2.172 5.058-2.92a.5.5 0 0 1 .557.828l-1.51 1.171 3.472-2a.5.5 0 0 1 .545.837l-1.978 1.441 3.956-2.283a.5.5 0 0 1 .562.824l-4.755 3.786 7.792-4.5a.5.5 0 0 1 .559.825l-4.526 3.572 3.967-2.29a.5.5 0 0 1 .559.825l-1.85 1.461 1.3-.75a.5.5 0 0 1 .634.753l-1.7 2.04 1.07-.617a.5.5 0 0 1 .5.865L36.712 37.4a.5.5 0 0 1-.634-.753l1.7-2.04-4.836 2.793a.5.5 0 0 1-.559-.825l1.859-1.468L30.27 37.4a.5.5 0 0 1-.56-.825l4.526-3.572-7.617 4.4a.493.493 0 0 1-.25.067z" opacity="1" data-original="#bad3d6" class=""></path><path fill="#f7eced" d="M39.961 30.47a.5.5 0 0 1-.31-.893l1.1-.867-2.932 1.69a.5.5 0 0 1-.549-.833l2.694-2.021-4.943 2.854a.5.5 0 0 1-.544-.837l4.388-3.186L31.9 30.4a.5.5 0 0 1-.532-.845l3.9-2.658L29.2 30.4a.5.5 0 0 1-.531-.845l5.663-3.855-8.142 4.7a.5.5 0 0 1-.53-.846l7.188-4.87-9.489 5.477a.5.5 0 0 1-.523-.851l5.084-3.324-6.12 3.528a.5.5 0 0 1-.519-.855l1.006-.64-1.533.884a.5.5 0 0 1-.524-.851l4.17-2.718-4.715 2.722a.5.5 0 0 1-.521-.853l2.643-1.703-2.933 1.692a.5.5 0 0 1-.524-.85l5.019-3.292-5.234 3.021a.5.5 0 0 1-.521-.853l1.945-1.249-1.866 1.076a.5.5 0 0 1-.519-.854l.239-.153a.5.5 0 0 1-.519-.851l8.132-5.718-7.72 4.457a.5.5 0 0 1-.526-.85l1.78-1.176-.932.538a.5.5 0 0 1-.582-.807l1.374-1.218a.5.5 0 0 1-.036-.885l3-1.734a.5.5 0 0 1 .582.807l-.568.5 11.185-6.457a.5.5 0 0 1 .525.849l-1.781 1.176L34.231 11a.5.5 0 0 1 .538.842l-8.134 5.719 9.677-5.587a.5.5 0 0 1 .52.854l-.217.138.6-.349a.5.5 0 0 1 .52.854L35.8 14.715l2.287-1.32a.5.5 0 0 1 .524.85l-5.022 3.294 5.405-3.12a.5.5 0 0 1 .521.852l-2.65 1.709 2.794-1.613a.5.5 0 0 1 .524.852l-4.163 2.719 5.619-3.245a.5.5 0 0 1 .518.855l-1 .64 1.89-1.091a.5.5 0 0 1 .523.851l-5.085 3.322 5.9-3.4a.5.5 0 0 1 .53.847l-7.195 4.876 7.847-4.53a.5.5 0 0 1 .532.845l-5.657 3.849L46.3 19.37a.5.5 0 0 1 .532.846l-3.9 2.66 3.724-2.15a.5.5 0 0 1 .544.837l-4.387 3.186 3.852-2.225a.5.5 0 0 1 .55.833l-2.697 2.023 1.707-.985a.5.5 0 0 1 .559.825l-1.52 1.2a.5.5 0 0 1 .231.933L40.211 30.4a.493.493 0 0 1-.25.07z" opacity="1" data-original="#def0f2" class=""></path><path fill="#f7eced" d="M25.978 14.022a.5.5 0 0 1-.25-.932l3.728-2.153a.5.5 0 1 1 .5.865l-3.728 2.153a.5.5 0 0 1-.25.067z" opacity="1" data-original="#def0f2" class=""></path><g fill="#262626"><path d="M52.725 19.689C51.94 14.334 54.44 4.957 51.5.865 38.113.2 24.321.53 10.889.751c-6.584 2.637-2.568 12.09-3.616 17.616.093 10.959-.173 22.023.094 32.933 0 4.51 5.556 4.31 8.907 4.024-.723 6.768 2.823 3.32 5.628 1.962 3.246 2.353 6.557 3.636 5.824-1.968 5.916-.877 18.689 1.971 22.767-1.517.66-2.046.044-4.426.231-6.55 4.359-1.594 1.006-22.173 2.001-27.562zM11.276 1.529v45.287a5 5 0 0 0-2.551 1.237C9.811 41.464 6.007.931 11.276 1.529zM25 57.734c-2.389-2.33-4.676-.8-6.969.79-.782-2.031-.066-4.738-.3-6.992h8.548c-.054 2.31.1 4.645-.044 6.943A71.996 71.996 0 0 1 25 57.734zm24.281-4.7c.392 3.526-18.068.879-21.55 1.652v-3.154c17.728-1.533-29.168-1.4-11.452 0v3.162c-1.288.019-2.584.056-3.865-.01-4.1-.21-5.2-6.672-.821-7.343 12.538-.153 25.129.053 37.689-.025-.001 1.899.092 3.822-.006 5.716zm2-8.374c2.454 4.323-34.078 1.09-38.551 1.985V1.423c5.25.957 39.235-2.242 38.545 1.856.094 13.78.031 27.591 0 41.379z" fill="#262626" opacity="1" data-original="#262626" class=""></path><path d="M40.727 15.719C37.1 9.013 27.3 9.323 23.509 15.7c-9.646-.112-8.989 13.369-.233 14.5-1.469 9.682 4.223 6.864 11.063 7.189 6.392.713 6.79-1.628 6.385-7.3 8.418-1.271 9.737-14.789.003-14.37zm-2.439 20.892c-4.241-.271-8.778.553-12.874-.338-1.366-1.546-.425-3.981-.69-5.884h14.552c-.382 1.771 1 5.333-.988 6.222zm7.063-10.7c-1.608 2.968-4.9 4.1-8.1 3.7 1.286-.492 4.056-5.357 1.035-3.492a5.316 5.316 0 0 1-2.258 3.492h-3.3c-.209-1.211.434-3.1-.273-3.977-2.051-.147-.893 2.707-1.175 3.977-3.155.7-4.843-1.449-5.821-3.966-2.527-.05-.129 3.238.887 3.966-8.046 1.617-12.668-12.631-3.267-13.259-1.349 2.334 1.516 1.166 1.556-.436 3.132-6.251 11.672-5.641 14.739.328.24.348.333 1.173.785 1.244.747-.014 1.553-.327.893-1.106 4.414.491 6.484 5.591 4.299 9.528zM44.3 50.655c-3.247.283-6.916-.583-9.964.368-.485.651 12.654.586 9.964-.368z" fill="#262626" opacity="1" data-original="#262626" class=""></path></g></g></svg>