<?xml version="1.0" encoding="iso-8859-1"?>
<!-- Generator: Adobe Illustrator 19.0.0, SVG Export Plug-In . SVG Version: 6.00 Build 0)  -->
<svg version="1.1" id="Capa_1" xmlns="http://www.w3.org/2000/svg" xmlns:xlink="http://www.w3.org/1999/xlink" x="0px" y="0px"
	 viewBox="0 0 512.001 512.001" style="enable-background:new 0 0 512.001 512.001;" xml:space="preserve">
<path style="fill:#C3E9F1;" d="M41.719,206.393l38.853,38.852l-31.558,31.558l-38.853-38.852c-3.557-3.558-3.557-9.325,0-12.883
	l18.676-18.676C32.394,202.836,38.162,202.836,41.719,206.393z"/>
<rect x="51.375" y="233.147" transform="matrix(0.7071 0.7071 -0.7071 0.7071 197.9889 32.9358)" style="opacity:0.05;enable-background:new    ;" width="15.725" height="44.63"/>
<path id="SVGCleanerId_0" style="fill:#F0F1F1;" d="M260.68,65.137l-19.181,19.181c-6.176,6.176-16.735,1.802-16.735-6.932V59.834
	c0-26.601-21.564-48.167-48.167-48.167l0,0c-26.601,0-48.167,21.565-48.167,48.167v119.426c0,11.606-4.61,22.736-12.817,30.943
	l-83.459,83.459c-5.455,5.455-6.239,14.027-1.864,20.381l0,0c49.46,71.83,111.64,134.01,183.47,183.469l0,0
	c6.354,4.375,14.926,3.591,20.381-1.864l228.526-228.525c55.777-55.777,55.777-146.21,0-201.987l0,0
	C406.889,9.359,316.457,9.359,260.68,65.137z"/>
<g>
	<path id="SVGCleanerId_0_1_" style="fill:#F0F1F1;" d="M260.68,65.137l-19.181,19.181c-6.176,6.176-16.735,1.802-16.735-6.932
		V59.834c0-26.601-21.564-48.167-48.167-48.167l0,0c-26.601,0-48.167,21.565-48.167,48.167v119.426
		c0,11.606-4.61,22.736-12.817,30.943l-83.459,83.459c-5.455,5.455-6.239,14.027-1.864,20.381l0,0
		c49.46,71.83,111.64,134.01,183.47,183.469l0,0c6.354,4.375,14.926,3.591,20.381-1.864l228.526-228.525
		c55.777-55.777,55.777-146.21,0-201.987l0,0C406.889,9.359,316.457,9.359,260.68,65.137z"/>
</g>
<path style="opacity:0.1;enable-background:new    ;" d="M224.763,59.834c0-3.996-0.495-7.875-1.413-11.587h-93.507
	c-0.917,3.712-1.413,7.591-1.413,11.587v2.973h96.333V59.834z M479.557,166.65V85.461c-4.299-6.268-9.149-12.27-14.561-17.935
	v99.125H361.154V62.808h99.125c-5.665-5.411-11.668-10.261-17.935-14.56h-81.189V23.31c-4.861,0.018-9.721,0.286-14.561,0.797
	v24.139h-65.589c-6.267,4.299-12.27,9.149-17.935,14.56h83.524V166.65H242.749V83.067l-1.251,1.251
	c-3.948,3.948-9.683,3.58-13.31,0.523v81.81h-99.758v12.609c0,0.652-0.019,1.302-0.048,1.951h99.806v103.842H146.88
	c-4.021,0-7.28,3.26-7.28,7.28c0,4.021,3.26,7.28,7.28,7.28h81.308v80.104c0,4.021,3.26,7.28,7.28,7.28c4.021,0,7.28-3.26,7.28-7.28
	v-80.103h103.843v83.583l14.561-14.561v-69.022h69.022l14.561-14.561h-83.583V181.211h103.842v83.523
	c5.411-5.665,10.261-11.668,14.561-17.935v-65.588h24.139c0.511-4.84,0.78-9.699,0.797-14.561L479.557,166.65L479.557,166.65z
	 M346.592,285.054H242.749V181.211h103.843V285.054z"/>
<rect x="38.741" y="301.603" transform="matrix(-0.7071 -0.7071 0.7071 -0.7071 65.1307 719.4439)" style="fill:#F18290;" width="285.651" height="89.26"/>
<g>
	
		<ellipse transform="matrix(0.7071 -0.7071 0.7071 0.7071 -180.8952 172.0245)" style="fill:#FFFFFF;" cx="117.204" cy="304.372" rx="22.07" ry="27.715"/>
	
		<ellipse transform="matrix(-0.7071 0.7071 -0.7071 -0.7071 671.7552 542.9374)" style="fill:#FFFFFF;" cx="223.432" cy="410.594" rx="22.07" ry="27.715"/>
</g>
<path style="opacity:0.1;enable-background:new    ;" d="M185.371,12.479c-2.847-0.524-5.776-0.812-8.774-0.812l0,0
	c-26.601,0-48.167,21.564-48.167,48.167v119.426c0,11.606-4.61,22.736-12.817,30.943l-83.459,83.459
	c-5.455,5.455-6.239,14.027-1.864,20.381l0,0c49.46,71.83,111.64,134.01,183.47,183.469l0,0c6.354,4.375,14.926,3.591,20.381-1.864
	l47.422-47.422C121.919,365.825,162.451,94.864,185.371,12.479z"/>
<g style="opacity:0.1;">
	<circle cx="427.846" cy="225.094" r="7.247"/>
	<circle cx="318.945" cy="327.365" r="7.247"/>
	<circle cx="281.564" cy="98.142" r="7.247"/>
	<circle cx="164.093" cy="132.073" r="7.247"/>
</g>
<path d="M227.576,391.111c1.919,0,3.839-0.732,5.303-2.197l6.92-6.92c2.929-2.929,2.929-7.678,0-10.606
	c-2.929-2.929-7.678-2.929-10.606,0l-6.92,6.92c-2.929,2.929-2.929,7.678,0,10.606C223.737,390.378,225.657,391.111,227.576,391.111
	z M195.148,360.767c0.643,0,1.289-0.022,1.934-0.066c4.132-0.284,7.252-3.864,6.969-7.996c-0.284-4.132-3.871-7.243-7.996-6.969
	c-3.792,0.264-7.504-1.127-10.183-3.805c-2.678-2.679-4.065-6.39-3.805-10.182c0.284-4.132-2.837-7.712-6.969-7.996
	c-4.131-0.287-7.712,2.836-7.996,6.969c-0.558,8.119,2.418,16.071,8.163,21.816C180.555,357.826,187.711,360.767,195.148,360.767z
	 M144.193,307.728c1.919,0,3.839-0.732,5.303-2.197l6.92-6.92c2.929-2.929,2.929-7.678,0-10.606c-2.929-2.929-7.678-2.929-10.607,0
	l-6.92,6.921c-2.929,2.929-2.929,7.678,0,10.606C140.354,306.995,142.273,307.728,144.193,307.728z M511.55,154.472
	c-0.318-4.129-3.923-7.221-8.056-6.899c-4.13,0.319-7.219,3.926-6.899,8.056c3.055,39.5-11.244,78.204-39.231,106.191
	L314.118,405.066L122.692,213.641c8.555-9.44,13.238-21.55,13.238-34.38V59.834c0-22.423,18.243-40.667,40.667-40.667
	s40.666,18.243,40.666,40.667v17.551c0,7.023,4.193,13.298,10.682,15.986c6.488,2.688,13.891,1.215,18.857-3.751l19.182-19.181
	c25.559-25.56,59.543-39.637,95.69-39.636c36.147,0,70.131,14.076,95.69,39.637c14.76,14.759,25.643,32.18,32.347,51.777
	c1.342,3.92,5.606,6.008,9.524,4.668c3.919-1.341,6.01-5.605,4.668-9.524c-7.451-21.78-19.54-41.137-35.932-57.529
	c-58.614-58.612-153.981-58.612-212.594,0l-19.181,19.181c-0.899,0.899-1.861,0.768-2.51,0.499
	c-0.649-0.269-1.422-0.856-1.422-2.128v-17.55c0-30.694-24.972-55.667-55.666-55.667c-30.694,0-55.667,24.972-55.667,55.667V179.26
	c0,9.686-3.771,18.791-10.62,25.64l-29.74,29.737L47.023,201.09c-3.137-3.137-7.308-4.865-11.745-4.865s-8.608,1.728-11.745,4.865
	L4.857,219.766c-6.476,6.476-6.475,17.013,0,23.489l33.548,33.548l-11.554,11.555c-8.013,8.013-9.164,20.603-2.737,29.937
	c50.165,72.854,112.54,135.229,185.394,185.394c4.041,2.782,8.691,4.145,13.317,4.144c6.06,0,12.077-2.337,16.621-6.882
	l16.855-16.855c0.001-0.001,0.003-0.002,0.004-0.004c0.001-0.001,0.003-0.003,0.004-0.004l63.112-63.112l0.001-0.001l0.001-0.001
	l148.548-148.548C499.059,241.338,514.944,198.344,511.55,154.472z M15.464,232.648c-0.627-0.627-0.627-1.649,0-2.276l18.676-18.676
	c0.389-0.389,0.834-0.471,1.138-0.471s0.748,0.082,1.138,0.472l33.548,33.548l-20.952,20.952L15.464,232.648z M251,468.183
	L107.768,324.951c-2.929-2.929-7.678-2.929-10.606,0c-2.929,2.929-2.929,7.678,0,10.607L240.394,478.79l-11.555,11.555
	c-2.897,2.897-7.449,3.314-10.824,0.99C146.674,442.212,85.593,381.131,36.469,309.79c-2.323-3.374-1.907-7.927,0.99-10.824
	l11.556-11.556l23.928,23.928c1.464,1.464,3.384,2.197,5.303,2.197c1.919,0,3.839-0.732,5.303-2.197
	c2.929-2.929,2.929-7.678,0-10.606l-23.928-23.928l52.511-52.511l191.38,191.381L251,468.183z"/>
<g>
</g>
<g>
</g>
<g>
</g>
<g>
</g>
<g>
</g>
<g>
</g>
<g>
</g>
<g>
</g>
<g>
</g>
<g>
</g>
<g>
</g>
<g>
</g>
<g>
</g>
<g>
</g>
<g>
</g>
</svg>
