<?xml version="1.0" encoding="UTF-8" standalone="no"?>
<!-- Created with Inkscape (http://www.inkscape.org/) -->

<svg
   version="1.1"
   id="svg375"
   xml:space="preserve"
   width="682.66669"
   height="682.66669"
   viewBox="0 0 682.66669 682.66669"
   xmlns="http://www.w3.org/2000/svg"
   xmlns:svg="http://www.w3.org/2000/svg"><defs
     id="defs379"><clipPath
       clipPathUnits="userSpaceOnUse"
       id="clipPath389"><path
         d="M 0,512 H 512 V 0 H 0 Z"
         id="path387" /></clipPath></defs><g
     id="g381"
     transform="matrix(1.3333333,0,0,-1.3333333,0,682.66667)"><g
       id="g383"><g
         id="g385"
         clip-path="url(#clipPath389)"><g
           id="g391"
           transform="translate(408.915,47.5)"><path
             d="m 0,0 h 60.038 c 5.523,0 10,-3.358 10,-7.5 v -15 c 0,-4.142 -4.477,-7.5 -10,-7.5 H 0.255"
             style="fill:none;stroke:#000000;stroke-width:15;stroke-linecap:round;stroke-linejoin:round;stroke-miterlimit:10;stroke-dasharray:none;stroke-opacity:1"
             id="path393" /></g><g
           id="g395"
           transform="translate(71.5625,180.0386)"><path
             d="M 0,0 23.7,-71.107"
             style="fill:none;stroke:#000000;stroke-width:15;stroke-linecap:round;stroke-linejoin:round;stroke-miterlimit:10;stroke-dasharray:none;stroke-opacity:1"
             id="path397" /></g><g
           id="g399"
           transform="translate(327.8066,489.0049)"><path
             d="m 0,0 c -17.636,9.869 -37.969,15.495 -59.614,15.495 -67.517,0 -122.25,-54.733 -122.25,-122.25 v -78.807 c 0,-6.596 -5.348,-11.943 -11.944,-11.943 -5.116,0 -9.663,3.258 -11.308,8.102 l -7.899,23.252 c -7.386,21.646 -34.923,31.315 -56.524,21.698 -21.601,-9.617 -29.862,-33.052 -22.698,-56.525 l 25.145,-75.442"
             style="fill:none;stroke:#000000;stroke-width:15;stroke-linecap:round;stroke-linejoin:round;stroke-miterlimit:10;stroke-dasharray:none;stroke-opacity:1"
             id="path401" /></g><g
           id="g403"
           transform="translate(390.4424,108.915)"><path
             d="m 0,0 v 273.335 c 0,33.256 -13.279,63.411 -34.825,85.451"
             style="fill:none;stroke:#000000;stroke-width:15;stroke-linecap:round;stroke-linejoin:round;stroke-miterlimit:10;stroke-dasharray:none;stroke-opacity:1"
             id="path405" /></g><g
           id="g407"
           transform="translate(51.4053,251.5)"><path
             d="M 0,0 65,65"
             style="fill:none;stroke:#000000;stroke-width:15;stroke-linecap:round;stroke-linejoin:round;stroke-miterlimit:10;stroke-dasharray:none;stroke-opacity:1"
             id="path409" /></g><g
           id="g411"
           transform="translate(84.4053,149.5)"><path
             d="M 0,0 289.041,293.473"
             style="fill:none;stroke:#000000;stroke-width:15;stroke-linecap:round;stroke-linejoin:round;stroke-miterlimit:10;stroke-dasharray:none;stroke-opacity:1"
             id="path413" /></g><g
           id="g415"
           transform="translate(239.4053,109.5)"><path
             d="M 0,0 -205,205"
             style="fill:none;stroke:#000000;stroke-width:15;stroke-linecap:round;stroke-linejoin:round;stroke-miterlimit:10;stroke-dasharray:none;stroke-opacity:1"
             id="path417" /></g><g
           id="g419"
           transform="translate(374.4053,109.5)"><path
             d="M 0,0 -228,216"
             style="fill:none;stroke:#000000;stroke-width:15;stroke-linecap:round;stroke-linejoin:round;stroke-miterlimit:10;stroke-dasharray:none;stroke-opacity:1"
             id="path421" /></g><g
           id="g423"
           transform="translate(389.4629,220.231)"><path
             d="M 0,0 -224.963,225.269"
             style="fill:none;stroke:#000000;stroke-width:15;stroke-linecap:round;stroke-linejoin:round;stroke-miterlimit:10;stroke-dasharray:none;stroke-opacity:1"
             id="path425" /></g><g
           id="g427"
           transform="translate(301.4053,109.5)"><path
             d="M 0,0 88.058,87.564"
             style="fill:none;stroke:#000000;stroke-width:15;stroke-linecap:round;stroke-linejoin:round;stroke-miterlimit:10;stroke-dasharray:none;stroke-opacity:1"
             id="path429" /></g><g
           id="g431"
           transform="translate(389.4629,351.4829)"><path
             d="M 0,0 -148.058,148.017"
             style="fill:none;stroke:#000000;stroke-width:15;stroke-linecap:round;stroke-linejoin:round;stroke-miterlimit:10;stroke-dasharray:none;stroke-opacity:1"
             id="path433" /></g><g
           id="g435"
           transform="translate(171.4053,109.5)"><path
             d="M 0,0 218.058,218.787"
             style="fill:none;stroke:#000000;stroke-width:15;stroke-linecap:round;stroke-linejoin:round;stroke-miterlimit:10;stroke-dasharray:none;stroke-opacity:1"
             id="path437" /></g><g
           id="g439"
           transform="translate(146.4053,353.5)"><path
             d="M 0,0 151,146"
             style="fill:none;stroke:#000000;stroke-width:15;stroke-linecap:round;stroke-linejoin:round;stroke-miterlimit:10;stroke-dasharray:none;stroke-opacity:1"
             id="path441" /></g><g
           id="g443"
           transform="translate(272.4043,7.5)"><path
             d="m 0,0 h 130.001 c 3.313,0 6,2.687 6,6 v 89 c 0,3.313 -2.687,6 -6,6 h -319 c -3.313,0 -6,-2.687 -6,-6 V 6 c 0,-3.313 2.687,-6 6,-6 h 153.936"
             style="fill:none;stroke:#000000;stroke-width:15;stroke-linecap:round;stroke-linejoin:round;stroke-miterlimit:10;stroke-dasharray:none;stroke-opacity:1"
             id="path445" /></g><g
           id="g447"
           transform="translate(79.4395,65)"><path
             d="m 0,0 c 20.432,0 20.432,-14 40.864,-14 20.43,0 20.43,14 40.861,14 20.431,0 20.431,-14 40.864,-14 20.432,0 20.432,14 40.866,14 20.434,0 20.434,-14 40.867,-14 20.433,0 20.433,14 40.866,14 20.436,0 20.436,-14 40.872,-14 20.436,0 20.436,14 40.872,14"
             style="fill:none;stroke:#000000;stroke-width:15;stroke-linecap:round;stroke-linejoin:round;stroke-miterlimit:10;stroke-dasharray:none;stroke-opacity:1"
             id="path449" /></g><g
           id="g451"
           transform="translate(242.9053,36.5)"><path
             d="M 0,0 V 0"
             style="fill:none;stroke:#000000;stroke-width:15;stroke-linecap:round;stroke-linejoin:round;stroke-miterlimit:10;stroke-dasharray:none;stroke-opacity:1"
             id="path453" /></g><g
           id="g455"
           transform="translate(161.7061,36.5)"><path
             d="M 0,0 V 0"
             style="fill:none;stroke:#000000;stroke-width:15;stroke-linecap:round;stroke-linejoin:round;stroke-miterlimit:10;stroke-dasharray:none;stroke-opacity:1"
             id="path457" /></g><g
           id="g459"
           transform="translate(324.1035,36.5)"><path
             d="M 0,0 V 0"
             style="fill:none;stroke:#000000;stroke-width:15;stroke-linecap:round;stroke-linejoin:round;stroke-miterlimit:10;stroke-dasharray:none;stroke-opacity:1"
             id="path461" /></g><g
           id="g463"
           transform="translate(201.7715,79.5)"><path
             d="M 0,0 V 0"
             style="fill:none;stroke:#000000;stroke-width:15;stroke-linecap:round;stroke-linejoin:round;stroke-miterlimit:10;stroke-dasharray:none;stroke-opacity:1"
             id="path465" /></g><g
           id="g467"
           transform="translate(284.0391,79.5)"><path
             d="M 0,0 V 0"
             style="fill:none;stroke:#000000;stroke-width:15;stroke-linecap:round;stroke-linejoin:round;stroke-miterlimit:10;stroke-dasharray:none;stroke-opacity:1"
             id="path469" /></g><g
           id="g471"
           transform="translate(120.4053,79.5)"><path
             d="M 0,0 V 0"
             style="fill:none;stroke:#000000;stroke-width:15;stroke-linecap:round;stroke-linejoin:round;stroke-miterlimit:10;stroke-dasharray:none;stroke-opacity:1"
             id="path473" /></g><g
           id="g475"
           transform="translate(365.4053,79.5)"><path
             d="M 0,0 V 0"
             style="fill:none;stroke:#000000;stroke-width:15;stroke-linecap:round;stroke-linejoin:round;stroke-miterlimit:10;stroke-dasharray:none;stroke-opacity:1"
             id="path477" /></g></g></g></g></svg>
