<svg xmlns="http://www.w3.org/2000/svg" version="1.1" xmlns:xlink="http://www.w3.org/1999/xlink" width="512" height="512" x="0" y="0" viewBox="0 0 512 512" style="enable-background:new 0 0 512 512" xml:space="preserve" class=""><g><path d="M338.31 263.51V82.31A82.31 82.31 0 0 0 256 0a82.31 82.31 0 0 0-82.31 82.31v181.2a137.69 137.69 0 0 0-55.56 110.67c0 75.43 61.46 137.29 136.88 137.82h1a137.88 137.88 0 0 0 82.31-248.49zM256 474h-.72a99.93 99.93 0 0 1-88.22-145.37A101.07 101.07 0 0 1 196.4 294l15.29-11.39V82.31a44.31 44.31 0 1 1 88.62 0v200.28L315.6 294a101 101 0 0 1 29.33 34.64 98.68 98.68 0 0 1 10.94 45.51A100 100 0 0 1 256 474z" fill="#a84f58" opacity="1" data-original="#000000"></path><path d="M274 304.6V150.14a18 18 0 0 0-36 0V304.6a71.83 71.83 0 1 0 36 0zM378.68 100H451a18 18 0 0 0 0-36h-72.32a18 18 0 0 0 0 36zM451 218.26h-72.32a18 18 0 0 0 0 36H451a18 18 0 0 0 0-36zM378.68 177.14h36.17a18 18 0 0 0 0-36h-36.17a18 18 0 1 0 0 36z" fill="#a84f58" opacity="1" data-original="#000000"></path></g></svg>