<svg xmlns="http://www.w3.org/2000/svg" xmlns:xlink="http://www.w3.org/1999/xlink" width="1800" zoomAndPan="magnify" viewBox="0 0 1350 599.999999" height="800" preserveAspectRatio="xMidYMid meet" version="1.0"><defs><clipPath id="53f564b579"><path d="M 295.351562 200.496094 L 473.554688 200.496094 L 473.554688 392.945312 L 295.351562 392.945312 Z M 295.351562 200.496094 " clip-rule="nonzero"/></clipPath><clipPath id="d71717c1a3"><path d="M 384.453125 200.496094 C 335.242188 200.496094 295.351562 243.519531 295.351562 296.59375 C 295.351562 349.664062 335.242188 392.6875 384.453125 392.6875 C 433.660156 392.6875 473.554688 349.664062 473.554688 296.59375 C 473.554688 243.519531 433.660156 200.496094 384.453125 200.496094 Z M 384.453125 200.496094 " clip-rule="nonzero"/></clipPath><clipPath id="122db2464a"><path d="M 384.453125 200.496094 C 335.242188 200.496094 295.351562 243.519531 295.351562 296.59375 C 295.351562 349.664062 335.242188 392.6875 384.453125 392.6875 C 433.660156 392.6875 473.554688 349.664062 473.554688 296.59375 C 473.554688 243.519531 433.660156 200.496094 384.453125 200.496094 Z M 384.453125 200.496094 " clip-rule="nonzero"/></clipPath><clipPath id="de81b7132e"><path d="M 361.882812 242.839844 L 394.765625 242.839844 L 394.765625 275.726562 L 361.882812 275.726562 Z M 361.882812 242.839844 " clip-rule="nonzero"/></clipPath><clipPath id="9502ea2a2e"><path d="M 365.152344 242.839844 L 391.492188 242.839844 C 392.359375 242.839844 393.191406 243.1875 393.804688 243.800781 C 394.417969 244.414062 394.765625 245.246094 394.765625 246.113281 L 394.765625 272.453125 C 394.765625 273.320312 394.417969 274.152344 393.804688 274.765625 C 393.191406 275.378906 392.359375 275.726562 391.492188 275.726562 L 365.152344 275.726562 C 364.289062 275.726562 363.453125 275.378906 362.839844 274.765625 C 362.226562 274.152344 361.882812 273.320312 361.882812 272.453125 L 361.882812 246.113281 C 361.882812 245.246094 362.226562 244.414062 362.839844 243.800781 C 363.453125 243.1875 364.289062 242.839844 365.152344 242.839844 Z M 365.152344 242.839844 " clip-rule="nonzero"/></clipPath><clipPath id="51c5d6dec8"><path d="M 365.152344 242.839844 L 391.492188 242.839844 C 392.359375 242.839844 393.191406 243.1875 393.804688 243.800781 C 394.417969 244.414062 394.765625 245.246094 394.765625 246.113281 L 394.765625 272.453125 C 394.765625 273.320312 394.417969 274.152344 393.804688 274.765625 C 393.191406 275.378906 392.359375 275.726562 391.492188 275.726562 L 365.152344 275.726562 C 364.289062 275.726562 363.453125 275.378906 362.839844 274.765625 C 362.226562 274.152344 361.882812 273.320312 361.882812 272.453125 L 361.882812 246.113281 C 361.882812 245.246094 362.226562 244.414062 362.839844 243.800781 C 363.453125 243.1875 364.289062 242.839844 365.152344 242.839844 Z M 365.152344 242.839844 " clip-rule="nonzero"/></clipPath><clipPath id="b44c28d348"><path d="M 339.242188 308.691406 L 372.125 308.691406 L 372.125 341.574219 L 339.242188 341.574219 Z M 339.242188 308.691406 " clip-rule="nonzero"/></clipPath><clipPath id="e10796e339"><path d="M 342.515625 308.691406 L 368.851562 308.691406 C 369.722656 308.691406 370.554688 309.035156 371.167969 309.648438 C 371.78125 310.261719 372.125 311.09375 372.125 311.960938 L 372.125 338.300781 C 372.125 339.167969 371.78125 340 371.167969 340.613281 C 370.554688 341.226562 369.722656 341.574219 368.851562 341.574219 L 342.515625 341.574219 C 341.648438 341.574219 340.816406 341.226562 340.203125 340.613281 C 339.589844 340 339.242188 339.167969 339.242188 338.300781 L 339.242188 311.960938 C 339.242188 311.09375 339.589844 310.261719 340.203125 309.648438 C 340.816406 309.035156 341.648438 308.691406 342.515625 308.691406 Z M 342.515625 308.691406 " clip-rule="nonzero"/></clipPath><clipPath id="c53297bbdd"><path d="M 342.515625 308.691406 L 368.851562 308.691406 C 369.722656 308.691406 370.554688 309.035156 371.167969 309.648438 C 371.78125 310.261719 372.125 311.09375 372.125 311.960938 L 372.125 338.300781 C 372.125 339.167969 371.78125 340 371.167969 340.613281 C 370.554688 341.226562 369.722656 341.574219 368.851562 341.574219 L 342.515625 341.574219 C 341.648438 341.574219 340.816406 341.226562 340.203125 340.613281 C 339.589844 340 339.242188 339.167969 339.242188 338.300781 L 339.242188 311.960938 C 339.242188 311.09375 339.589844 310.261719 340.203125 309.648438 C 340.816406 309.035156 341.648438 308.691406 342.515625 308.691406 Z M 342.515625 308.691406 " clip-rule="nonzero"/></clipPath><clipPath id="2b668eb75b"><path d="M 405.390625 280.152344 L 438.273438 280.152344 L 438.273438 313.035156 L 405.390625 313.035156 Z M 405.390625 280.152344 " clip-rule="nonzero"/></clipPath><clipPath id="50f4ebba2c"><path d="M 408.660156 280.152344 L 435 280.152344 C 435.867188 280.152344 436.699219 280.5 437.3125 281.113281 C 437.925781 281.726562 438.273438 282.558594 438.273438 283.425781 L 438.273438 309.761719 C 438.273438 310.628906 437.925781 311.464844 437.3125 312.078125 C 436.699219 312.691406 435.867188 313.035156 435 313.035156 L 408.660156 313.035156 C 407.796875 313.035156 406.960938 312.691406 406.347656 312.078125 C 405.734375 311.464844 405.390625 310.628906 405.390625 309.761719 L 405.390625 283.425781 C 405.390625 282.558594 405.734375 281.726562 406.347656 281.113281 C 406.960938 280.5 407.796875 280.152344 408.660156 280.152344 Z M 408.660156 280.152344 " clip-rule="nonzero"/></clipPath><clipPath id="f36d83f22b"><path d="M 408.660156 280.152344 L 435 280.152344 C 435.867188 280.152344 436.699219 280.5 437.3125 281.113281 C 437.925781 281.726562 438.273438 282.558594 438.273438 283.425781 L 438.273438 309.761719 C 438.273438 310.628906 437.925781 311.464844 437.3125 312.078125 C 436.699219 312.691406 435.867188 313.035156 435 313.035156 L 408.660156 313.035156 C 407.796875 313.035156 406.960938 312.691406 406.347656 312.078125 C 405.734375 311.464844 405.390625 310.628906 405.390625 309.761719 L 405.390625 283.425781 C 405.390625 282.558594 405.734375 281.726562 406.347656 281.113281 C 406.960938 280.5 407.796875 280.152344 408.660156 280.152344 Z M 408.660156 280.152344 " clip-rule="nonzero"/></clipPath><clipPath id="1baa6dfa73"><path d="M 446.554688 200.496094 L 624.757812 200.496094 L 624.757812 392.945312 L 446.554688 392.945312 Z M 446.554688 200.496094 " clip-rule="nonzero"/></clipPath><clipPath id="6406905680"><path d="M 535.652344 200.496094 C 486.445312 200.496094 446.554688 243.519531 446.554688 296.59375 C 446.554688 349.664062 486.445312 392.6875 535.652344 392.6875 C 584.863281 392.6875 624.757812 349.664062 624.757812 296.59375 C 624.757812 243.519531 584.863281 200.496094 535.652344 200.496094 Z M 535.652344 200.496094 " clip-rule="nonzero"/></clipPath><clipPath id="7f9f98b2b9"><path d="M 535.652344 200.496094 C 486.445312 200.496094 446.554688 243.519531 446.554688 296.59375 C 446.554688 349.664062 486.445312 392.6875 535.652344 392.6875 C 584.863281 392.6875 624.757812 349.664062 624.757812 296.59375 C 624.757812 243.519531 584.863281 200.496094 535.652344 200.496094 Z M 535.652344 200.496094 " clip-rule="nonzero"/></clipPath><clipPath id="1aaf4a48cf"><path d="M 534.335938 308.691406 L 567.21875 308.691406 L 567.21875 341.574219 L 534.335938 341.574219 Z M 534.335938 308.691406 " clip-rule="nonzero"/></clipPath><clipPath id="30c201e011"><path d="M 537.609375 308.691406 L 563.945312 308.691406 C 564.816406 308.691406 565.648438 309.035156 566.261719 309.648438 C 566.875 310.261719 567.21875 311.09375 567.21875 311.960938 L 567.21875 338.300781 C 567.21875 339.167969 566.875 340 566.261719 340.613281 C 565.648438 341.226562 564.816406 341.574219 563.945312 341.574219 L 537.609375 341.574219 C 536.738281 341.574219 535.910156 341.226562 535.292969 340.613281 C 534.679688 340 534.335938 339.167969 534.335938 338.300781 L 534.335938 311.960938 C 534.335938 311.09375 534.679688 310.261719 535.292969 309.648438 C 535.910156 309.035156 536.738281 308.691406 537.609375 308.691406 Z M 537.609375 308.691406 " clip-rule="nonzero"/></clipPath><clipPath id="9f41433bac"><path d="M 537.609375 308.691406 L 563.945312 308.691406 C 564.816406 308.691406 565.648438 309.035156 566.261719 309.648438 C 566.875 310.261719 567.21875 311.09375 567.21875 311.960938 L 567.21875 338.300781 C 567.21875 339.167969 566.875 340 566.261719 340.613281 C 565.648438 341.226562 564.816406 341.574219 563.945312 341.574219 L 537.609375 341.574219 C 536.738281 341.574219 535.910156 341.226562 535.292969 340.613281 C 534.679688 340 534.335938 339.167969 534.335938 338.300781 L 534.335938 311.960938 C 534.335938 311.09375 534.679688 310.261719 535.292969 309.648438 C 535.910156 309.035156 536.738281 308.691406 537.609375 308.691406 Z M 537.609375 308.691406 " clip-rule="nonzero"/></clipPath><clipPath id="79bb968712"><path d="M 497.058594 259.285156 L 529.941406 259.285156 L 529.941406 292.167969 L 497.058594 292.167969 Z M 497.058594 259.285156 " clip-rule="nonzero"/></clipPath><clipPath id="541e8dd3a7"><path d="M 500.332031 259.285156 L 526.667969 259.285156 C 527.535156 259.285156 528.371094 259.628906 528.984375 260.242188 C 529.597656 260.855469 529.941406 261.6875 529.941406 262.554688 L 529.941406 288.894531 C 529.941406 289.761719 529.597656 290.59375 528.984375 291.207031 C 528.371094 291.820312 527.535156 292.167969 526.667969 292.167969 L 500.332031 292.167969 C 499.460938 292.167969 498.632812 291.820312 498.015625 291.207031 C 497.402344 290.59375 497.058594 289.761719 497.058594 288.894531 L 497.058594 262.554688 C 497.058594 261.6875 497.402344 260.855469 498.015625 260.242188 C 498.632812 259.628906 499.460938 259.285156 500.332031 259.285156 Z M 500.332031 259.285156 " clip-rule="nonzero"/></clipPath><clipPath id="2032be3f66"><path d="M 500.332031 259.285156 L 526.667969 259.285156 C 527.535156 259.285156 528.371094 259.628906 528.984375 260.242188 C 529.597656 260.855469 529.941406 261.6875 529.941406 262.554688 L 529.941406 288.894531 C 529.941406 289.761719 529.597656 290.59375 528.984375 291.207031 C 528.371094 291.820312 527.535156 292.167969 526.667969 292.167969 L 500.332031 292.167969 C 499.460938 292.167969 498.632812 291.820312 498.015625 291.207031 C 497.402344 290.59375 497.058594 289.761719 497.058594 288.894531 L 497.058594 262.554688 C 497.058594 261.6875 497.402344 260.855469 498.015625 260.242188 C 498.632812 259.628906 499.460938 259.285156 500.332031 259.285156 Z M 500.332031 259.285156 " clip-rule="nonzero"/></clipPath></defs><g clip-path="url(#53f564b579)"><g clip-path="url(#d71717c1a3)"><g clip-path="url(#122db2464a)"><path fill="#faf9f6" d="M 295.351562 200.496094 L 473.554688 200.496094 L 473.554688 392.625 L 295.351562 392.625 Z M 295.351562 200.496094 " fill-opacity="1" fill-rule="nonzero"/></g></g></g><g clip-path="url(#de81b7132e)"><g clip-path="url(#9502ea2a2e)"><g clip-path="url(#51c5d6dec8)"><path fill="#1f1a16" d="M 361.882812 242.839844 L 394.765625 242.839844 L 394.765625 275.726562 L 361.882812 275.726562 Z M 361.882812 242.839844 " fill-opacity="1" fill-rule="nonzero"/></g></g></g><g clip-path="url(#b44c28d348)"><g clip-path="url(#e10796e339)"><g clip-path="url(#c53297bbdd)"><path fill="#1f1a16" d="M 339.242188 308.691406 L 372.125 308.691406 L 372.125 341.574219 L 339.242188 341.574219 Z M 339.242188 308.691406 " fill-opacity="1" fill-rule="nonzero"/></g></g></g><g clip-path="url(#2b668eb75b)"><g clip-path="url(#50f4ebba2c)"><g clip-path="url(#f36d83f22b)"><path fill="#1f1a16" d="M 405.390625 280.152344 L 438.273438 280.152344 L 438.273438 313.035156 L 405.390625 313.035156 Z M 405.390625 280.152344 " fill-opacity="1" fill-rule="nonzero"/></g></g></g><g clip-path="url(#1baa6dfa73)"><g clip-path="url(#6406905680)"><g clip-path="url(#7f9f98b2b9)"><path fill="#faf9f6" d="M 446.554688 200.496094 L 624.757812 200.496094 L 624.757812 392.625 L 446.554688 392.625 Z M 446.554688 200.496094 " fill-opacity="1" fill-rule="nonzero"/></g></g></g><g clip-path="url(#1aaf4a48cf)"><g clip-path="url(#30c201e011)"><g clip-path="url(#9f41433bac)"><path fill="#1f1a16" d="M 534.335938 308.691406 L 567.21875 308.691406 L 567.21875 341.574219 L 534.335938 341.574219 Z M 534.335938 308.691406 " fill-opacity="1" fill-rule="nonzero"/></g></g></g><g clip-path="url(#79bb968712)"><g clip-path="url(#541e8dd3a7)"><g clip-path="url(#2032be3f66)"><path fill="#1f1a16" d="M 497.058594 259.285156 L 529.941406 259.285156 L 529.941406 292.167969 L 497.058594 292.167969 Z M 497.058594 259.285156 " fill-opacity="1" fill-rule="nonzero"/></g></g></g><path fill="#faf9f6" d="M 1194.773438 332.167969 L 1194.773438 270.785156 C 1194.773438 255.023438 1189.382812 239.261719 1179.847656 225.160156 C 1164.5 202.351562 1138.785156 189.074219 1110.992188 189.074219 C 1072.421875 189.074219 1037.582031 215.621094 1029.289062 251.707031 C 1026.386719 263.320312 1025.96875 267.878906 1025.96875 290.277344 L 1025.96875 336.730469 C 1025.96875 374.886719 1040.488281 401.015625 1069.933594 417.605469 C 1082.375 424.660156 1095.648438 427.976562 1109.75 427.976562 C 1135.464844 427.976562 1154.957031 419.265625 1174.039062 398.945312 L 1133.804688 364.933594 C 1126.753906 373.230469 1120.117188 376.960938 1110.992188 376.960938 C 1100.210938 376.960938 1090.671875 371.152344 1085.695312 362.03125 C 1083.207031 357.050781 1082.375 352.90625 1082.375 341.292969 L 1082.375 332.167969 Z M 1138.785156 280.324219 L 1082.375 280.324219 L 1082.375 278.664062 C 1082.375 267.054688 1082.789062 262.074219 1084.863281 257.097656 C 1089.011719 246.730469 1098.96875 239.675781 1110.582031 239.675781 C 1122.195312 239.675781 1132.976562 247.140625 1136.707031 257.929688 C 1138.367188 262.902344 1138.785156 266.636719 1138.785156 277.421875 Z M 1138.785156 280.324219 " fill-opacity="1" fill-rule="nonzero"/><path fill="#faf9f6" d="M 1003.773438 332.167969 L 1003.773438 270.785156 C 1003.773438 255.023438 998.382812 239.261719 988.84375 225.160156 C 973.496094 202.351562 947.78125 189.074219 919.992188 189.074219 C 881.417969 189.074219 846.578125 215.621094 838.285156 251.707031 C 835.382812 263.320312 834.964844 267.878906 834.964844 290.277344 L 834.964844 336.730469 C 834.964844 374.886719 849.484375 401.015625 878.929688 417.605469 C 891.375 424.660156 904.644531 427.976562 918.746094 427.976562 C 944.460938 427.976562 963.957031 419.265625 983.035156 398.945312 L 942.804688 364.933594 C 935.75 373.230469 929.117188 376.960938 919.992188 376.960938 C 909.210938 376.960938 899.671875 371.152344 894.695312 362.03125 C 892.207031 357.050781 891.375 352.90625 891.375 341.292969 L 891.375 332.167969 Z M 947.78125 280.324219 L 891.375 280.324219 L 891.375 278.664062 C 891.375 267.054688 891.789062 262.074219 893.863281 257.097656 C 898.007812 246.730469 907.964844 239.675781 919.578125 239.675781 C 931.191406 239.675781 941.972656 247.140625 945.707031 257.929688 C 947.363281 262.902344 947.78125 266.636719 947.78125 277.421875 Z M 947.78125 280.324219 " fill-opacity="1" fill-rule="nonzero"/><path fill="#faf9f6" d="M 701.003906 280.324219 L 701.003906 192.808594 L 645.007812 192.808594 L 645.007812 423.828125 L 701.003906 423.828125 L 701.003906 332.167969 L 724.644531 332.167969 C 735.84375 332.167969 744.96875 335.488281 750.773438 342.121094 C 756.992188 348.757812 758.238281 354.148438 758.238281 372.398438 L 758.238281 423.828125 L 814.230469 423.828125 L 814.230469 369.082031 C 814.230469 338.804688 808.011719 320.96875 787.269531 305.625 C 802.617188 294.425781 814.648438 281.980469 814.648438 245.484375 L 814.648438 192.808594 L 758.652344 192.808594 L 758.652344 244.652344 C 758.652344 268.296875 747.039062 279.910156 724.644531 280.324219 Z M 701.003906 280.324219 " fill-opacity="1" fill-rule="nonzero"/><path fill="#faf9f6" d="M 333.476562 396.101562 C 319.84375 412 308.488281 418.816406 291.828125 418.816406 C 271.386719 418.816406 251.695312 407.457031 245.636719 390.796875 C 241.09375 379.441406 239.578125 366.566406 239.578125 336.277344 L 239.578125 259.039062 C 239.578125 206.789062 242.609375 192.402344 257.75 179.527344 C 266.839844 171.199219 278.199219 167.410156 290.316406 167.410156 C 307.730469 167.410156 320.601562 174.226562 334.992188 192.402344 L 408.445312 128.792969 C 371.339844 90.929688 337.261719 75.03125 294.101562 75.03125 C 210.804688 75.03125 146.441406 133.335938 138.867188 216.632812 C 137.347656 229.503906 136.59375 243.890625 136.59375 264.339844 L 136.59375 333.246094 C 136.59375 388.527344 141.898438 412 161.582031 441.535156 C 191.117188 486.210938 236.550781 511.199219 290.316406 511.199219 C 337.261719 511.199219 369.066406 496.8125 406.929688 458.191406 Z M 333.476562 396.101562 " fill-opacity="1" fill-rule="nonzero"/></svg>